<svg width="274" height="274" viewBox="0 0 274 274" fill="none" xmlns="http://www.w3.org/2000/svg">
<rect x="1" y="1" width="272" height="272" stroke="#D9D9D9" stroke-width="2"/>
<line x1="137.5" y1="2.18557e-08" x2="137.5" y2="274" stroke="#D9D9D9" stroke-dasharray="2 2"/>
<line x1="1" y1="135.5" x2="274" y2="135.5" stroke="#D9D9D9" stroke-dasharray="2 2"/>
<g clip-path="url(#clip0_195_137)">
<path d="M163.418 136.762C161.375 136.178 155.067 134.624 149.146 137.037C144.975 138.728 142.967 141.587 142.134 142.806C136.453 151.159 143.361 157.872 138.641 169.977C137.328 173.342 136.35 173.634 134.693 174.124C134.015 174.321 133.097 174.295 132.11 174.158C118.293 171.497 106.021 161.521 101.841 145.922C96.1514 124.683 106.433 103.298 124.858 96.9962L109.994 101.168C91.088 108.114 75.5459 130.684 81.1671 151.648C86.7798 172.613 110.775 182.554 138.882 177.841L139.577 177.549C140.323 177.515 141.07 177.403 141.791 177.18C143.121 176.759 146.09 175.815 148.571 173.832C149.103 173.403 149.618 172.93 150.081 172.407C155.179 166.629 148.614 159.958 152.295 147.347C154.441 139.99 157.719 138.118 159.127 137.509C160.766 136.796 162.328 136.719 163.409 136.77L163.418 136.762Z" fill="#595757"/>
<path d="M149.245 123.306C153.102 122.398 155.493 118.534 154.586 114.676C153.678 110.817 149.816 108.425 145.959 109.333C142.101 110.241 139.71 114.105 140.618 117.963C141.525 121.822 145.388 124.213 149.245 123.306Z" fill="#595757"/>
<path d="M192.777 116.939C190.803 102.98 176.085 93.4077 163.323 94.0258L152.87 95.5711C165.486 94.1889 177.269 104.534 179.32 118.965C181.328 133.105 173.253 146.042 161.169 148.626L170.85 147.133C183.285 144.179 194.759 130.89 192.777 116.931V116.939Z" fill="#595757"/>
</g>
<defs>
<clipPath id="clip0_195_137">
<rect width="113" height="85" fill="white" transform="translate(80 94)"/>
</clipPath>
</defs>
</svg>
