<svg width="274" height="274" viewBox="0 0 274 274" fill="none" xmlns="http://www.w3.org/2000/svg">
<rect x="1" y="128" width="272" height="145" stroke="#D9D9D9" stroke-width="2"/>
<line x1="137.5" y1="127" x2="137.5" y2="274" stroke="#D9D9D9" stroke-dasharray="2 2"/>
<path d="M1 200.5L272.5 200.5" stroke="#D9D9D9" stroke-dasharray="2 2"/>
<g clip-path="url(#clip0_197_143)">
<path d="M45.769 244.195C46.0038 244.379 46.1994 244.563 46.3429 244.734C46.4864 244.918 46.6168 245.141 46.7472 245.431C47.3863 245.115 47.9863 244.8 48.5471 244.471C49.0949 244.143 49.6427 243.775 50.1774 243.38C50.7122 242.986 51.2469 242.526 51.7817 242.014C52.3164 241.501 52.8903 240.897 53.4903 240.2H53.7642V243.144C53.7642 243.328 53.7642 243.486 53.7511 243.656C53.7511 243.827 53.725 243.998 53.712 244.169C53.712 244.353 53.6859 244.537 53.6729 244.747H54.951C54.938 244.537 54.925 244.353 54.925 244.182C54.925 244.024 54.925 243.854 54.9119 243.696C54.9119 243.538 54.9119 243.367 54.9119 243.183V240.187H55.0815C55.4727 240.686 55.9031 241.16 56.3727 241.593C56.8422 242.027 57.3639 242.461 57.9378 242.868C58.5117 243.288 59.1508 243.683 59.8551 244.077C60.5594 244.471 61.3419 244.865 62.2288 245.273C62.3332 245.036 62.4375 244.826 62.5418 244.629C62.6592 244.445 62.8027 244.235 62.9853 244.024C62.2419 243.788 61.5636 243.538 60.9376 243.275C60.3115 243.013 59.7377 242.723 59.1768 242.421C58.6291 242.119 58.1073 241.777 57.6117 241.409C57.1161 241.041 56.6335 240.634 56.151 240.174C56.8553 240.174 57.4813 240.174 58.0421 240.174C58.5899 240.174 59.0986 240.187 59.5551 240.2C60.0116 240.2 60.4289 240.227 60.8072 240.24C61.1984 240.266 61.5767 240.279 61.9419 240.305V239.123C61.055 239.175 60.0637 239.215 58.9421 239.228C57.8204 239.241 56.477 239.254 54.8989 239.254V237.283C55.5249 237.217 56.1118 237.165 56.6335 237.112C57.1552 237.073 57.5856 237.02 57.9248 236.981C58.5638 236.902 59.0595 236.862 59.3986 236.849C59.7377 236.849 60.0116 236.875 60.2333 236.941C60.442 237.007 60.5854 236.994 60.6637 236.875C60.742 236.77 60.7028 236.652 60.5724 236.521C60.4289 236.389 60.2985 236.218 60.142 236.008C59.9985 235.798 59.8551 235.588 59.7377 235.364C59.4377 235.482 59.1377 235.588 58.8508 235.666C58.5508 235.745 58.2247 235.824 57.8726 235.903C57.5204 235.982 57.1161 236.048 56.6727 236.1C56.2292 236.153 55.7075 236.218 55.1076 236.271C53.8163 236.376 52.5903 236.429 51.4295 236.442C50.2687 236.442 49.1601 236.376 48.1037 236.218C48.3906 236.665 48.5341 237.138 48.5471 237.638C48.821 237.638 49.1601 237.638 49.5514 237.611C49.9427 237.585 50.3731 237.572 50.8296 237.546C51.2861 237.519 51.7556 237.493 52.2643 237.467C52.7599 237.441 53.2685 237.401 53.7642 237.362V239.254C52.9294 239.254 52.186 239.254 51.5078 239.254C50.8296 239.254 50.2035 239.241 49.6297 239.228C49.0558 239.228 48.521 239.201 48.0254 239.188C47.5298 239.175 47.0603 239.149 46.6038 239.123V240.305C47.3602 240.266 48.1819 240.24 49.0949 240.2C49.9948 240.174 51.0513 240.161 52.2903 240.161C51.2209 241.291 50.1514 242.158 49.0688 242.776C47.9863 243.394 46.9037 243.854 45.7951 244.156L45.769 244.195Z" fill="#595757"/>
<path d="M59.4378 246.022C59.4378 245.891 59.4378 245.772 59.4378 245.654C59.4378 245.549 59.4508 245.431 59.4769 245.339C59.49 245.233 59.5161 245.128 59.5421 244.997C59.3204 245.023 59.0596 245.049 58.7857 245.076C58.4987 245.102 58.1596 245.115 57.7553 245.141C57.351 245.141 56.8684 245.168 56.3206 245.168C55.7728 245.168 55.1076 245.168 54.3381 245.168C53.5686 245.168 52.9295 245.168 52.3687 245.168C51.8209 245.168 51.3383 245.155 50.934 245.141C50.5297 245.128 50.1906 245.102 49.8906 245.076C49.5906 245.049 49.3428 245.023 49.1211 244.997C49.1733 245.26 49.2124 245.523 49.2385 245.799C49.2646 246.074 49.2776 246.311 49.2776 246.508V251.016C49.2776 251.252 49.2776 251.541 49.2515 251.896C49.2254 252.238 49.1993 252.606 49.1472 252.987H50.3341V251.515H58.3292V252.855H59.5552C59.503 252.488 59.4769 252.146 59.4508 251.817C59.4378 251.502 59.4248 251.187 59.4248 250.884V246.022H59.4378ZM58.3422 250.582H50.3471V248.768H58.3422V250.582ZM58.3422 247.849H50.3471V246.14H58.3422V247.849Z" fill="#595757"/>
<path d="M105.022 250.372C104.97 250.621 104.891 250.819 104.813 250.95C104.735 251.081 104.631 251.173 104.513 251.213C104.396 251.252 104.252 251.265 104.096 251.265C103.704 251.265 103.444 251.213 103.313 251.121C103.196 251.016 103.131 250.845 103.131 250.582V246.285C103.444 246.298 103.704 246.311 103.913 246.337C104.122 246.364 104.37 246.39 104.644 246.442C104.617 246.14 104.604 245.812 104.591 245.444C104.591 245.076 104.578 244.695 104.578 244.287V238.268C104.578 237.861 104.578 237.454 104.591 237.033C104.604 236.613 104.617 236.31 104.644 236.126C104.252 236.192 103.809 236.232 103.326 236.258C102.844 236.284 102.244 236.284 101.513 236.284C101.096 236.284 100.757 236.284 100.457 236.284C100.17 236.284 99.9091 236.271 99.6874 236.258C99.4656 236.258 99.257 236.232 99.0744 236.205C98.8918 236.179 98.6961 236.166 98.5135 236.14C98.5396 236.324 98.5527 236.626 98.5787 237.046C98.5918 237.467 98.6048 237.887 98.6048 238.282V244.3C98.6048 244.708 98.6048 245.115 98.5787 245.509C98.5527 245.904 98.5396 246.232 98.5135 246.469C98.6309 246.442 98.7483 246.416 98.8526 246.403C98.957 246.377 99.0613 246.364 99.1787 246.35C99.2961 246.35 99.4265 246.324 99.583 246.324C99.7265 246.324 99.9221 246.324 100.144 246.324C100.157 247.113 100.066 247.835 99.87 248.479C99.6743 249.123 99.4135 249.701 99.1004 250.201C98.7744 250.7 98.4092 251.121 97.9788 251.449C97.5484 251.791 97.1049 252.028 96.6484 252.172C96.9875 252.317 97.2223 252.448 97.3658 252.579C97.5092 252.698 97.6136 252.855 97.6918 253.039C98.344 252.487 98.8918 251.988 99.3222 251.528C99.7526 251.068 100.092 250.595 100.353 250.096C100.613 249.596 100.796 249.058 100.913 248.466C101.031 247.875 101.096 247.165 101.122 246.337H102.178V251.042C102.178 251.252 102.179 251.436 102.218 251.594C102.244 251.752 102.309 251.883 102.426 252.001C102.544 252.106 102.726 252.198 102.961 252.251C103.196 252.304 103.535 252.33 103.952 252.33C104.331 252.33 104.631 252.304 104.852 252.238C105.074 252.172 105.27 252.067 105.413 251.896C105.557 251.725 105.674 251.489 105.752 251.186C105.843 250.884 105.935 250.49 106.026 249.991C105.791 249.951 105.491 249.754 105.152 249.399C105.113 249.833 105.074 250.175 105.009 250.437L105.022 250.372ZM99.6222 237.27H103.509V239.438H99.6222V237.27ZM99.6222 240.319H103.509V242.447H99.6222V240.319ZM99.6222 245.391V243.341H103.509V245.391H99.6222Z" fill="#595757"/>
<path d="M97.6394 249.977C97.2611 250.017 96.8307 250.056 96.3612 250.083C95.8916 250.109 95.3699 250.122 94.7961 250.148V248.808C95.3569 248.808 95.8395 248.834 96.2568 248.86C96.6742 248.887 97.0655 248.913 97.4176 248.966V247.809C97.0524 247.862 96.6742 247.901 96.2438 247.914C95.8264 247.941 95.3439 247.954 94.7961 247.967V246.771C95.3178 246.771 95.7743 246.771 96.1786 246.797C96.5829 246.824 96.9611 246.85 97.3002 246.902V245.72C96.9481 245.759 96.5699 245.785 96.1655 245.812C95.7612 245.838 95.2917 245.851 94.783 245.877V244.8C95.3569 244.826 95.9047 244.852 96.4264 244.865C96.9481 244.892 97.3655 244.918 97.6915 244.957V243.775C97.3655 243.801 96.9351 243.827 96.3873 243.854C95.8395 243.88 95.2786 243.906 94.7178 243.919C94.5743 243.656 94.4439 243.407 94.2874 243.183C94.1439 242.96 93.9353 242.684 93.6874 242.369L92.9179 242.921C93.1397 243.183 93.3092 243.38 93.4135 243.525C93.5179 243.656 93.6092 243.801 93.7005 243.946H91.3137C91.4311 243.775 91.5224 243.656 91.6137 243.578C91.705 243.499 91.7702 243.446 91.8354 243.42C91.9789 243.38 92.0571 243.302 92.0441 243.197C92.0441 243.091 91.9528 242.999 91.8093 242.947C91.6398 242.907 91.4702 242.868 91.3398 242.802C91.1963 242.75 91.0528 242.671 90.8963 242.553C90.6876 243.236 90.3616 243.972 89.9312 244.747C89.5008 245.523 88.9399 246.232 88.2617 246.863C88.4834 246.902 88.653 246.968 88.7704 247.047C88.8878 247.126 89.0182 247.27 89.1747 247.467C89.3834 247.178 89.579 246.902 89.7486 246.653C89.9181 246.39 90.0877 246.153 90.2312 245.917V248.361C90.2312 249.123 90.2181 249.846 90.179 250.543C90.1399 251.239 90.0877 251.883 90.0355 252.487H91.2485V251.055H94.3526C95.0569 251.055 95.683 251.055 96.2177 251.094C96.7525 251.121 97.235 251.16 97.6524 251.213V250.017L97.6394 249.977ZM93.7657 250.135H91.2354V248.795H93.7657V250.135ZM93.7657 247.954H91.2354V246.732H93.7657V247.954ZM93.7657 245.864H91.2354V244.787H93.7657V245.864Z" fill="#595757"/>
<path d="M97.5093 240.253C97.5093 240.043 97.5093 239.793 97.5223 239.491C97.3528 239.504 97.1963 239.517 97.0789 239.517C96.9615 239.517 96.8311 239.53 96.7007 239.53C96.5833 239.53 96.4398 239.53 96.2963 239.53H95.3051C95.1747 239.53 95.0443 239.53 94.9269 239.53C94.7964 239.53 94.6791 239.53 94.5486 239.517C94.4182 239.517 94.2617 239.504 94.0791 239.491C94.0791 239.675 94.1052 239.898 94.1052 240.174C94.1052 240.437 94.1052 240.713 94.1052 240.976C94.1052 241.238 94.1052 241.528 94.1052 241.83C94.1052 242.132 94.0921 242.382 94.0791 242.566C94.2487 242.526 94.4052 242.5 94.5226 242.474C94.6399 242.447 94.7704 242.434 94.8877 242.421C95.0051 242.408 95.1356 242.395 95.266 242.395H95.7616C96.1268 242.395 96.4268 242.395 96.6746 242.421C96.9224 242.447 97.2093 242.487 97.5354 242.553C97.5354 242.369 97.5223 242.119 97.5223 241.817V240.253H97.5093ZM96.6094 241.725H94.966V240.305H96.6094V241.725Z" fill="#595757"/>
<path d="M90.0878 236.915C89.9052 236.915 89.7226 236.889 89.527 236.862C89.3314 236.836 89.1096 236.823 88.8618 236.797V238.058C89.1096 238.032 89.3314 238.006 89.527 237.993C89.7226 237.966 89.9052 237.953 90.0878 237.94C90.2704 237.94 90.453 237.914 90.6356 237.914C90.8182 237.914 91.0269 237.914 91.2486 237.914V239.057H92.2138V237.914H94.8353V239.096H95.7483V237.914C96.0092 237.914 96.2309 237.914 96.4135 237.914C96.5961 237.914 96.7656 237.927 96.9352 237.94C97.1047 237.953 97.2743 237.966 97.4569 237.993C97.6395 238.006 97.8482 238.032 98.096 238.058V236.797C97.809 236.836 97.5743 236.862 97.3917 236.889C97.2091 236.915 97.0265 236.928 96.87 236.928C96.7135 236.928 96.5439 236.941 96.3744 236.954C96.2048 236.954 95.9961 236.954 95.7483 236.954V236.429C95.7483 236.218 95.7744 236.048 95.8135 235.903C95.8527 235.772 95.9048 235.68 95.957 235.653C96.0613 235.588 96.1005 235.522 96.0874 235.443C96.0874 235.377 95.9961 235.338 95.8657 235.338C95.6309 235.338 95.2527 235.299 94.7179 235.22C94.7701 235.456 94.7962 235.706 94.8223 235.982C94.8353 236.258 94.8484 236.573 94.8484 236.954H92.2268V236.31C92.2268 236.192 92.2399 236.074 92.279 235.942C92.3051 235.824 92.3442 235.732 92.3964 235.693C92.5137 235.627 92.5529 235.548 92.5268 235.469C92.5007 235.39 92.4355 235.351 92.3442 235.351C92.1616 235.351 91.979 235.351 91.7964 235.325C91.6138 235.325 91.3921 235.285 91.1312 235.22C91.1573 235.417 91.1834 235.653 91.1964 235.929C91.2095 236.205 91.2356 236.547 91.2356 236.928C91.0138 236.928 90.8052 236.928 90.6356 236.928C90.453 236.928 90.2704 236.915 90.1009 236.902L90.0878 236.915Z" fill="#595757"/>
<path d="M93.1006 240.266C93.1006 240.056 93.1006 239.793 93.1137 239.491C92.9572 239.517 92.7224 239.53 92.4224 239.543C92.1224 239.543 91.7703 239.543 91.366 239.543C90.9616 239.543 90.6486 239.543 90.3878 239.543C90.1269 239.543 89.8921 239.517 89.6704 239.491C89.6965 239.675 89.7095 239.911 89.7226 240.187C89.7226 240.463 89.7226 240.726 89.7226 240.989C89.7226 241.252 89.7226 241.528 89.7226 241.83C89.7226 242.119 89.6965 242.369 89.6704 242.553C89.8269 242.539 89.9704 242.526 90.0878 242.526C90.2052 242.526 90.3225 242.526 90.4399 242.526H92.2659C92.3963 242.526 92.5267 242.526 92.6572 242.526C92.7876 242.526 92.9441 242.539 93.1137 242.553C93.1137 242.369 93.1006 242.132 93.1006 241.83V240.279V240.266ZM92.1746 241.711H90.5573V240.292H92.1746V241.711Z" fill="#595757"/>
<path d="M146.067 246.653C146.406 246.653 146.771 246.666 147.188 246.692C147.593 246.718 147.984 246.758 148.362 246.81V245.654C147.984 245.707 147.58 245.746 147.175 245.772C146.771 245.799 146.406 245.812 146.067 245.812V245.365C146.067 244.944 146.067 244.576 146.106 244.261C146.132 243.946 146.158 243.67 146.197 243.42C145.649 243.473 144.919 243.512 143.993 243.538C143.067 243.564 141.854 243.578 140.354 243.604V242.329C141.567 242.342 142.597 242.369 143.445 242.395C144.293 242.421 145.049 242.474 145.715 242.539C145.676 242.25 145.649 241.988 145.636 241.751C145.623 241.514 145.61 241.212 145.61 240.831C145.61 240.411 145.61 240.069 145.636 239.793C145.636 239.53 145.676 239.28 145.715 239.057C145.049 239.11 144.293 239.149 143.458 239.175C142.624 239.202 141.593 239.215 140.354 239.241V237.966C142.05 237.966 143.497 237.979 144.697 238.019C145.897 238.058 146.954 238.098 147.893 238.163V236.849C147.423 236.889 146.928 236.915 146.393 236.941C145.858 236.968 145.297 236.981 144.684 237.007C144.071 237.033 143.419 237.046 142.702 237.046C141.984 237.046 141.202 237.046 140.354 237.046V236.245C140.354 235.811 140.445 235.548 140.615 235.456C140.771 235.364 140.824 235.259 140.758 235.141C140.693 235.023 140.55 234.983 140.341 235.009C140.198 235.036 140.002 235.036 139.793 235.009C139.585 234.983 139.35 234.957 139.102 234.904C139.128 235.023 139.154 235.141 139.167 235.272C139.193 235.404 139.193 235.535 139.206 235.693C139.206 235.85 139.206 236.034 139.232 236.258C139.232 236.481 139.232 236.744 139.232 237.059C137.798 237.059 136.467 237.046 135.241 237.007C134.015 236.981 132.933 236.928 131.981 236.862V238.177C132.45 238.15 132.933 238.124 133.428 238.098C133.924 238.071 134.459 238.045 135.046 238.032C135.633 238.006 136.259 238.006 136.95 237.993C137.628 237.993 138.398 237.993 139.232 237.993V239.267C138.737 239.267 138.228 239.267 137.72 239.267C137.211 239.267 136.702 239.241 136.207 239.228C135.711 239.202 135.241 239.188 134.798 239.162C134.355 239.136 133.963 239.123 133.611 239.096C133.65 239.32 133.676 239.556 133.689 239.819C133.702 240.082 133.715 240.437 133.715 240.884C133.715 241.265 133.715 241.58 133.689 241.817C133.663 242.053 133.637 242.303 133.611 242.553C134.302 242.487 135.098 242.434 135.985 242.408C136.872 242.382 137.954 242.369 139.232 242.369V243.643C138.424 243.643 137.706 243.643 137.054 243.643C136.402 243.643 135.828 243.617 135.32 243.604C134.811 243.578 134.341 243.564 133.937 243.538C133.533 243.512 133.168 243.499 132.829 243.473V244.59C133.442 244.537 134.237 244.498 135.241 244.458C136.246 244.419 137.576 244.406 139.219 244.406V245.877H134.733C134.563 245.877 134.341 245.877 134.081 245.877C133.82 245.877 133.546 245.851 133.246 245.838C132.946 245.825 132.659 245.799 132.359 245.772C132.059 245.746 131.772 245.733 131.511 245.707V246.863C131.785 246.837 132.072 246.81 132.372 246.784C132.672 246.758 132.972 246.745 133.259 246.718C133.546 246.705 133.807 246.692 134.068 246.692C134.328 246.692 134.537 246.692 134.707 246.692H139.206V248.203C137.798 248.203 136.585 248.203 135.567 248.177C134.55 248.151 133.637 248.111 132.802 248.046V249.163C133.611 249.11 134.524 249.071 135.541 249.031C136.559 249.005 137.785 248.979 139.206 248.979V250.253C139.206 250.569 139.167 250.819 139.102 251.016C139.037 251.213 138.893 251.357 138.672 251.436C138.45 251.528 138.137 251.554 137.72 251.541C137.302 251.528 136.767 251.449 136.102 251.331C136.337 251.607 136.494 251.87 136.572 252.133C136.65 252.396 136.702 252.672 136.715 252.961C137.472 252.961 138.085 252.921 138.554 252.829C139.024 252.75 139.389 252.606 139.663 252.422C139.924 252.238 140.106 252.001 140.198 251.712C140.289 251.423 140.341 251.081 140.341 250.674V248.966H144.997V250.004H146.184C146.158 249.833 146.132 249.675 146.119 249.531C146.106 249.386 146.08 249.242 146.08 249.097C146.067 248.952 146.054 248.795 146.054 248.624V246.679L146.067 246.653ZM140.354 239.964H144.489V241.593H140.354V239.964ZM139.219 241.593H134.824V239.964H139.219V241.593ZM145.01 248.151H140.354V246.64H145.01V248.151ZM145.01 245.825H140.354V244.353H145.01V245.825Z" fill="#595757"/>
<path d="M189.955 237.638C189.707 237.651 189.42 237.664 189.094 237.664C188.768 237.664 188.377 237.664 187.934 237.664H184.19C184.243 237.559 184.282 237.454 184.334 237.335C184.373 237.217 184.425 237.112 184.477 236.994C184.595 236.692 184.712 236.468 184.803 236.31C184.895 236.166 185.038 236.034 185.221 235.929C185.338 235.864 185.416 235.785 185.442 235.693C185.469 235.601 185.39 235.535 185.221 235.496C185.051 235.456 184.843 235.391 184.621 235.285C184.399 235.18 184.177 235.062 183.969 234.917C183.799 235.693 183.59 236.389 183.356 237.007C183.121 237.625 182.86 238.19 182.586 238.676C182.312 239.175 182.025 239.609 181.725 240.003C181.425 240.397 181.112 240.752 180.799 241.068C181.034 241.133 181.243 241.212 181.412 241.317C181.582 241.422 181.751 241.554 181.921 241.738C182.286 241.225 182.599 240.726 182.886 240.24C183.173 239.753 183.46 239.215 183.747 238.623H185.051C184.751 240.424 184.282 241.935 183.643 243.17C183.004 244.406 182.104 245.457 180.956 246.324C181.243 246.35 181.451 246.429 181.608 246.561C181.751 246.692 181.908 246.876 182.077 247.113C182.599 246.521 183.056 245.956 183.447 245.404C183.838 244.852 184.19 244.261 184.503 243.617C184.816 242.973 185.103 242.263 185.364 241.462C185.625 240.673 185.873 239.727 186.134 238.636H187.581C187.412 240.332 187.19 241.764 186.929 242.96C186.668 244.143 186.316 245.181 185.873 246.061C185.429 246.942 184.882 247.717 184.23 248.387C183.577 249.058 182.756 249.715 181.791 250.359C182.13 250.437 182.377 250.543 182.56 250.661C182.743 250.792 182.899 250.976 183.056 251.239C183.747 250.595 184.347 250.004 184.856 249.465C185.364 248.926 185.795 248.401 186.147 247.875C186.512 247.349 186.812 246.797 187.06 246.232C187.308 245.667 187.516 245.023 187.699 244.3C187.881 243.591 188.038 242.763 188.168 241.856C188.299 240.936 188.442 239.872 188.586 238.65H189.851C189.851 239.136 189.851 239.701 189.825 240.358C189.812 241.015 189.773 241.698 189.747 242.434C189.707 243.17 189.668 243.932 189.616 244.721C189.564 245.509 189.512 246.285 189.447 247.06C189.368 247.993 189.277 248.729 189.147 249.268C189.029 249.807 188.834 250.214 188.573 250.464C188.312 250.713 187.96 250.858 187.516 250.871C187.073 250.884 186.499 250.819 185.782 250.674C186.029 250.963 186.199 251.213 186.29 251.423C186.382 251.633 186.408 251.883 186.408 252.198C187.242 252.185 187.908 252.12 188.403 252.014C188.899 251.909 189.29 251.699 189.59 251.37C189.877 251.042 190.099 250.582 190.229 249.977C190.373 249.373 190.49 248.558 190.581 247.533C190.594 247.336 190.62 246.968 190.66 246.416C190.699 245.877 190.738 245.22 190.79 244.471C190.842 243.709 190.881 242.894 190.933 242.001C190.973 241.107 191.012 240.227 191.051 239.346C191.077 238.847 191.103 238.466 191.129 238.203C191.155 237.94 191.194 237.703 191.233 237.519C191.064 237.546 190.868 237.572 190.673 237.585C190.477 237.598 190.255 237.625 190.007 237.638H189.955Z" fill="#595757"/>
<path d="M180.369 239.977C180.695 240.003 180.995 240.043 181.282 240.121V238.82C180.995 238.886 180.695 238.939 180.369 238.965C180.043 238.991 179.665 239.004 179.234 239.004V237.296C179.234 236.902 179.26 236.534 179.312 236.179C179.365 235.824 179.443 235.588 179.547 235.469C179.704 235.259 179.782 235.128 179.756 235.062C179.73 235.009 179.626 234.983 179.456 234.996C179.326 234.996 179.13 234.996 178.843 234.944C178.556 234.891 178.256 234.839 177.956 234.76C178.021 234.996 178.073 235.351 178.1 235.811C178.139 236.271 178.152 236.915 178.152 237.703V239.004H176.495C176.613 238.544 176.73 238.176 176.847 237.914C176.965 237.651 177.03 237.493 177.069 237.467C177.213 237.362 177.265 237.243 177.252 237.125C177.226 237.007 177.147 236.928 176.978 236.902C176.821 236.875 176.639 236.836 176.443 236.783C176.247 236.731 176.052 236.652 175.843 236.547C175.856 236.744 175.856 236.941 175.843 237.125C175.843 237.322 175.817 237.519 175.778 237.756C175.739 237.993 175.687 238.242 175.634 238.531C175.569 238.82 175.491 239.162 175.387 239.556C175.295 239.898 175.217 240.2 175.126 240.476C175.035 240.752 174.956 240.989 174.865 241.212C174.774 241.436 174.682 241.646 174.591 241.843C174.487 242.04 174.382 242.237 174.252 242.434C174.5 242.447 174.721 242.474 174.904 242.539C175.087 242.592 175.282 242.671 175.478 242.776C175.661 242.237 175.817 241.751 175.947 241.304C176.078 240.87 176.182 240.411 176.261 239.951H178.139V244.537C177.63 244.76 177.108 244.957 176.6 245.141C176.078 245.325 175.452 245.509 174.708 245.707C174.852 245.969 174.969 246.206 175.061 246.429C175.152 246.653 175.217 246.876 175.282 247.1C175.765 246.837 176.247 246.587 176.73 246.337C177.2 246.101 177.682 245.864 178.152 245.641V248.006C178.152 249.005 178.126 249.885 178.1 250.635C178.06 251.384 178.008 252.106 177.956 252.79H179.404C179.339 252.12 179.299 251.41 179.273 250.648C179.247 249.899 179.234 249.018 179.234 248.006V245.128C179.586 244.944 179.952 244.773 180.304 244.603C180.656 244.445 181.008 244.274 181.373 244.116C181.217 243.932 181.112 243.762 181.073 243.591C181.034 243.42 181.034 243.21 181.073 242.973C180.721 243.183 180.382 243.367 180.082 243.538C179.782 243.696 179.495 243.854 179.221 243.998V239.937C179.652 239.937 180.03 239.937 180.356 239.977H180.369Z" fill="#595757"/>
<path d="M218.936 244.865C218.91 245.746 218.884 246.508 218.845 247.152C218.805 247.796 218.74 248.335 218.649 248.782C218.558 249.215 218.453 249.61 218.31 249.951C218.166 250.293 217.997 250.608 217.801 250.884C217.606 251.16 217.358 251.462 217.071 251.765C217.319 251.778 217.54 251.83 217.749 251.922C217.958 252.014 218.179 252.172 218.427 252.396C218.701 252.001 218.936 251.62 219.118 251.265C219.301 250.911 219.458 250.503 219.588 250.056C219.718 249.61 219.81 249.097 219.888 248.506C219.966 247.927 220.018 247.218 220.058 246.39H222.875C223.11 246.39 223.305 246.39 223.488 246.39C223.67 246.39 223.84 246.403 223.996 246.416C224.153 246.416 224.309 246.429 224.466 246.442C224.44 245.982 224.427 245.509 224.414 245.023C224.414 244.537 224.414 243.998 224.414 243.407C224.414 242.776 224.427 242.198 224.427 241.685C224.427 241.173 224.427 240.726 224.453 240.371C224.336 240.384 224.231 240.397 224.114 240.411C223.996 240.424 223.853 240.437 223.683 240.437C223.514 240.437 223.305 240.437 223.057 240.437H220.123V237.756C220.305 237.756 220.488 237.73 220.658 237.717C220.827 237.717 221.023 237.677 221.231 237.651C221.44 237.625 221.688 237.572 221.975 237.519C222.262 237.467 222.601 237.401 223.018 237.322C223.579 237.217 223.996 237.151 224.283 237.125C224.57 237.099 224.766 237.099 224.883 237.151C225.092 237.23 225.235 237.23 225.301 237.178C225.366 237.112 225.34 236.981 225.196 236.783C225.053 236.56 224.922 236.35 224.805 236.153C224.688 235.956 224.57 235.732 224.453 235.482C223.801 235.89 223.031 236.218 222.131 236.481C221.231 236.744 220.136 236.849 218.832 236.797C218.897 237.296 218.936 237.953 218.962 238.742C218.988 239.543 218.988 240.529 218.975 241.698C218.975 242.921 218.949 243.972 218.936 244.852V244.865ZM220.123 241.436H223.279V245.365H220.123V241.436Z" fill="#595757"/>
<path d="M225.444 248.019C225.248 248.69 224.961 249.307 224.57 249.846C224.179 250.385 223.644 250.95 222.979 251.554C223.227 251.62 223.475 251.738 223.722 251.909C223.97 252.08 224.179 252.251 224.348 252.435C224.922 251.752 225.379 251.095 225.718 250.477C226.057 249.859 226.318 249.176 226.514 248.453C226.696 247.73 226.827 246.929 226.892 246.035C226.957 245.141 226.983 244.077 226.983 242.842H229.983V249.452C229.983 250.043 229.983 250.608 229.957 251.16C229.931 251.699 229.905 252.264 229.879 252.829H231.274C231.248 252.553 231.235 252.29 231.222 252.028C231.222 251.765 231.196 251.515 231.183 251.252C231.183 250.989 231.17 250.713 231.17 250.424V242.842C231.822 242.842 232.37 242.842 232.8 242.868C233.23 242.881 233.635 242.921 234.013 242.973V241.672C233.791 241.698 233.57 241.712 233.348 241.738C233.126 241.738 232.878 241.764 232.617 241.764C232.357 241.764 232.057 241.764 231.731 241.79C231.405 241.79 231.026 241.79 230.583 241.79H227.009V237.914C227.609 237.874 228.248 237.822 228.939 237.743C229.631 237.677 230.296 237.585 230.909 237.493C231.457 237.414 231.9 237.375 232.252 237.362C232.604 237.362 232.904 237.375 233.139 237.427C233.374 237.48 233.517 237.454 233.557 237.335C233.596 237.217 233.53 237.086 233.361 236.928C233.191 236.757 233.035 236.586 232.917 236.429C232.787 236.271 232.657 236.061 232.526 235.811C232.031 235.995 231.522 236.153 231.026 236.297C230.518 236.442 229.983 236.56 229.435 236.639C228.887 236.718 228.3 236.784 227.7 236.81C227.087 236.836 226.435 236.823 225.744 236.77C225.809 237.257 225.848 237.94 225.887 238.834C225.914 239.727 225.94 240.87 225.94 242.263C225.94 243.656 225.914 244.721 225.861 245.628C225.809 246.534 225.679 247.323 225.483 247.993L225.444 248.019Z" fill="#595757"/>
<path d="M185.338 196.426C185.012 196.098 184.555 195.914 184.086 195.914H174.043C173.782 195.914 173.521 195.993 173.287 196.098V192.681H184.373V194.442C184.373 194.954 184.595 195.454 184.986 195.822L185.834 196.61V188.147L184.986 188.936C184.595 189.304 184.373 189.79 184.373 190.315V192.076H173.287V188.62C173.417 188.646 173.547 188.699 173.691 188.699H183.734C184.203 188.699 184.647 188.515 184.986 188.187L185.703 187.477H171.708L171.813 187.582V197.136H186.055L185.338 196.426Z" fill="#595757"/>
<path d="M168.213 153.651H172.517V157.304H167.235L168.083 158.145C168.474 158.526 169.009 158.75 169.556 158.75H176.925C177.486 158.75 178.008 158.539 178.399 158.145L179.247 157.304H173.965V153.651H177.173C177.851 153.651 178.504 153.441 178.973 153.046L180.017 152.205H173.952V148.499H172.491V152.218H165.331L166.374 153.059C166.857 153.441 167.496 153.664 168.174 153.664L168.213 153.651Z" fill="#595757"/>
<path d="M182.951 156.962V150.273C182.951 149.879 182.808 149.498 182.56 149.17C183.121 149.735 183.603 150.273 183.995 150.747C185.064 152.034 185.742 153.165 185.977 153.559C186.994 155.254 186.929 155.701 187.686 156.739C188.155 157.37 188.925 158.25 190.19 159.078V153.625V148.158L189.329 148.933C188.938 149.288 188.716 149.774 188.716 150.273V156.962C188.716 157.133 188.755 157.291 188.794 157.449C188.181 156.673 187.855 156.121 187.686 155.727C187.634 155.596 187.32 154.899 186.838 153.953C186.812 153.901 186.786 153.848 186.76 153.809C186.76 153.809 186.616 153.533 186.499 153.309C185.56 151.535 184.269 150.352 184.269 150.352C184.138 150.234 183.799 149.958 183.108 149.419C182.43 148.88 181.856 148.447 181.464 148.158V153.611V159.065L182.325 158.29C182.716 157.935 182.938 157.449 182.938 156.949L182.951 156.962Z" fill="#595757"/>
<path d="M168.33 168.566H176.938C177.212 168.527 178.699 168.277 179.312 167.016C179.508 166.608 179.573 166.188 179.599 165.977C179.599 165.977 179.743 164.926 179.364 163.809C179.312 163.665 179.26 163.533 179.26 163.533C179.169 163.323 179.064 163.139 178.973 162.994C178.804 162.718 178.634 162.534 178.582 162.482C178.412 162.298 178.256 162.206 178.177 162.153C177.734 161.851 177.251 161.746 176.978 161.707H168.513C168.513 161.707 168.513 161.615 168.513 161.562C168.5 161.049 168.278 160.353 167.717 159.932C167.209 159.564 166.674 159.604 166.504 159.617C166.883 161.733 166.87 165.478 166.374 169.329C165.839 173.442 164.561 176.583 163.609 178.541C164.731 177.319 166.204 175.374 167.287 172.64C167.822 171.287 168.161 169.67 168.369 168.593L168.33 168.566ZM173.991 163.27C174.93 163.257 175.686 163.323 176.625 163.297C176.834 163.375 177.238 163.559 177.551 163.993C178.034 164.65 177.982 165.426 177.956 165.78C177.93 166.135 177.864 166.989 177.225 167.607C176.991 167.83 176.743 167.962 176.508 168.041H173.978V163.27H173.991ZM168.643 163.27H169.23L172.465 163.349V168.041H168.474C168.591 166.595 168.643 164.966 168.643 163.27Z" fill="#595757"/>
<path d="M170.939 185.703C172.452 184.533 172.53 183.324 173.743 181.839C174.539 180.867 175.856 179.763 178.086 179.224V186.202H179.886V179.329C181.855 179.907 183.055 180.932 183.799 181.839C185.012 183.324 185.09 184.533 186.603 185.703C188.116 186.872 189.655 186.912 190.229 186.925C192.016 186.951 193.359 186.189 193.972 185.768C191.285 186.36 189.772 185.65 188.872 184.849C187.568 183.679 187.359 182.115 185.468 180.84C184.699 180.328 184.06 180.118 183.055 179.789C181.842 179.408 180.773 179.224 179.873 179.145V177.148H192.759L191.716 176.307C191.233 175.926 190.594 175.702 189.916 175.702H179.873V171.786C181.999 171.103 184.177 169.986 186.094 168.159C186.864 168.724 187.633 169.421 188.39 170.275C189.211 171.221 189.811 172.193 190.242 173.087C190.333 173.363 190.568 173.56 190.868 173.652C191.09 173.718 192.133 173.954 192.355 174.02C191.976 172.942 191.142 171.221 190.177 170.012C189.185 168.777 188.038 167.922 186.89 167.305C187.059 167.121 187.229 166.963 187.385 166.766C189.342 164.374 190.333 161.772 190.855 159.748C190.45 159.867 190.046 159.985 189.642 160.103C189.368 160.182 189.12 160.314 188.925 160.484H180.825V161.089H188.507C188.507 161.089 188.507 161.089 188.507 161.102C187.672 162.653 186.394 164.545 184.581 166.359C182.599 165.78 180.903 165.807 180.369 165.82C181.151 165.886 182.495 166.161 184.034 166.911C183.955 166.976 183.903 167.055 183.825 167.121C178.217 172.18 171.76 172.456 169.491 172.43C170.078 172.548 173.808 173.192 178.06 172.272V175.702H170.274C169.595 175.702 168.943 175.912 168.474 176.307L167.43 177.148H178.073V179.119C177.108 179.185 175.882 179.355 174.473 179.802C173.469 180.118 172.817 180.328 172.06 180.854C170.169 182.141 169.961 183.692 168.656 184.862C167.756 185.663 166.243 186.373 163.557 185.782C164.17 186.202 165.513 186.964 167.3 186.938C167.874 186.938 169.426 186.886 170.926 185.716L170.939 185.703Z" fill="#595757"/>
<path d="M225.496 181.077H210.98C210.419 181.077 209.897 181.287 209.506 181.681L208.658 182.523H227.844L226.996 181.681C226.605 181.3 226.07 181.077 225.522 181.077H225.496Z" fill="#595757"/>
<path d="M209.219 166.95C208.215 168.08 208.097 169.46 207.419 170.498C206.95 171.208 206.141 171.839 204.719 171.313C205.045 171.681 205.75 172.351 206.702 172.325C207.002 172.325 207.823 172.272 208.632 171.247C209.428 170.209 209.48 169.145 210.119 167.83C210.471 167.121 211.019 166.319 211.867 165.794H213.575C214.019 166.056 214.488 166.398 214.971 166.884C216.549 168.514 216.223 169.802 217.592 171.024C218.31 171.655 219.131 171.944 219.888 172.088C219.288 173.113 218.597 174.073 217.775 174.953C216.471 176.333 215.023 177.305 213.549 178.028V173.468H217.214V172.864H213.549V168.29H212.088V172.864H208.423V173.468H212.088V178.646C209.975 179.434 207.915 179.71 206.337 179.789C208.41 180.026 213.38 180.262 217.775 176.872C219.523 175.531 220.827 173.875 221.805 172.193C223.318 172.141 224.505 171.641 225.131 171.313C223.957 171.51 223.005 171.536 222.196 171.484C222.666 170.603 223.057 169.723 223.37 168.869C224.205 166.621 224.557 164.637 224.714 163.638H227.205C227.153 165.189 227.022 170.853 228.052 174.257C228.496 175.715 229.605 178.238 232.878 180.683C231.183 178.62 230.348 176.701 229.931 175.452C229.174 173.245 229.096 170.735 228.952 165.728C228.926 164.966 228.9 163.678 229.083 162.035C229.122 161.641 229.174 161.273 229.213 160.957C229.044 160.931 228.509 160.879 228.013 161.312C227.492 161.759 227.283 162.482 227.244 163.034H224.805C224.87 162.337 225.066 160.182 225.235 156.857V154.124H229.226C229.905 154.124 230.557 153.914 231.026 153.519L232.07 152.678H225.235V152.429C225.235 151.43 224.961 150.457 224.466 149.748L223.409 148.223V152.678H213.588V151.535C213.588 150.733 213.366 149.958 212.975 149.393L212.114 148.158V152.678H205.111L206.154 153.519C206.637 153.901 207.276 154.124 207.954 154.124H212.114V160.13H206.832V160.734H212.114V165.176H205.476V165.78H211.058C210.888 165.846 210.719 165.925 210.549 166.017C210.015 166.306 209.675 166.477 209.271 166.937L209.219 166.95ZM213.549 160.747H218.818V160.143H213.549V154.137H223.383C223.383 154.61 223.383 155.149 223.383 155.767C223.331 157.659 223.253 160.261 222.835 163.047H219.588V163.651H222.744C222.327 166.148 221.622 168.763 220.409 171.142C219.614 170.853 219.066 170.446 218.688 169.999C217.697 168.829 217.24 166.792 215.766 166.148C215.44 166.004 215.114 165.885 214.801 165.794H220.201V165.189H213.562V160.747H213.549Z" fill="#595757"/>
<path d="M223.801 191.498C223.461 190.736 222.614 190.407 221.909 190.775C221.205 191.143 220.905 192.063 221.244 192.839C221.583 193.601 222.431 193.929 223.135 193.561C223.84 193.193 224.14 192.273 223.801 191.498Z" fill="#595757"/>
<path d="M211.932 193.259C212.48 194.941 213.601 195.874 213.862 196.085C217.031 198.595 221.857 196.702 221.857 196.689C221.857 196.689 219.288 197.793 216.705 196.518C216.223 196.282 214.019 195.112 213.51 192.457C213.171 190.67 213.64 188.41 215.205 187.161C215.453 186.964 215.701 186.82 215.949 186.702H233.987L232.943 185.86C232.461 185.479 231.822 185.256 231.144 185.256H206.428C205.75 185.256 205.097 185.466 204.628 185.86L203.584 186.702H213.353C211.54 188.187 211.28 191.209 211.945 193.259H211.932Z" fill="#595757"/>
<path d="M110.565 189.711C112.052 189.067 113.46 188.988 114.438 189.041C112.586 188.515 106.887 187.096 101.526 189.29C97.757 190.828 95.944 193.43 95.1876 194.547C90.0488 202.156 96.2962 208.267 92.0312 219.292C90.8444 222.354 89.9575 222.63 88.4576 223.064C87.962 223.208 87.3359 223.222 86.6316 223.156C73.9412 220.882 62.581 211.775 58.7465 197.372C53.6077 178.028 62.8941 158.553 79.5625 152.81C75.9106 153.217 71.1631 154.19 66.1286 156.608C50.6862 164.019 34.6829 183.876 40.0695 202.603C47.5951 228.78 89.4749 226.901 92.253 226.454C93.6094 226.244 94.8876 225.85 94.8876 225.85C97.5222 225.061 99.5438 223.852 100.965 222.814L101.018 222.788H100.992C101.487 222.394 101.957 221.973 102.387 221.487C107.004 216.23 101.057 210.159 104.396 198.66C106.339 191.958 109.3 190.25 110.578 189.698L110.565 189.711Z" fill="#595757"/>
<path d="M101.239 176.859C104.774 176.241 107.135 172.864 106.522 169.302C105.909 165.741 102.557 163.362 99.0222 163.98C95.4876 164.598 93.1269 167.975 93.7399 171.536C94.3529 175.098 97.7049 177.476 101.239 176.859Z" fill="#595757"/>
<path d="M140.98 168.869C139.806 159.998 132.855 154.65 131.316 153.454C124.533 148.223 117.177 148.039 114.347 148C110.33 147.961 107.043 148.736 104.904 149.406C116.317 148.145 126.972 157.567 128.824 170.708C130.637 183.587 123.347 195.375 112.417 197.714C114.504 197.74 117.647 197.543 121.168 196.36C131.681 192.812 142.663 181.419 140.993 168.855L140.98 168.869Z" fill="#595757"/>
<path d="M124.729 221.25V212.498C124.729 211.841 124.364 211.21 123.725 210.737L122.329 209.725V224.023L123.725 223.011C124.364 222.551 124.729 221.907 124.729 221.25Z" fill="#595757"/>
<path d="M140.041 216.809C140.132 216.992 140.458 217.689 140.876 218.504C141.136 218.99 141.763 220.199 142.271 220.961C142.793 221.737 143.758 222.906 145.532 224.023V209.725L144.41 210.737C143.902 211.197 143.602 211.841 143.602 212.498V221.25C143.602 221.474 143.641 221.684 143.706 221.881C143.341 221.382 142.819 220.62 142.258 219.634C141.567 218.412 141.384 217.82 140.719 216.467C139.963 214.929 139.402 213.904 138.684 212.827C138.124 211.986 137.132 210.816 135.333 209.725V216.874V224.023L136.454 223.011C136.963 222.551 137.263 221.907 137.263 221.25V212.498C137.263 212.17 137.185 211.854 137.054 211.552C137.576 212.196 138.006 212.827 138.358 213.405C138.854 214.233 138.867 214.43 140.041 216.809Z" fill="#595757"/>
<path d="M176.104 211.618H178.464C178.816 211.618 179.156 211.486 179.403 211.263L179.951 210.777H172.23V223.419H179.951L179.403 222.932C179.156 222.709 178.816 222.578 178.464 222.578H174.16V217.216H178.66V216.559H174.16V211.631H176.117L176.104 211.618Z" fill="#595757"/>
<path d="M213.327 216.506C213.327 216.506 211.149 215.599 210.445 214.772C210.288 214.588 210.171 214.364 210.171 214.364C210.132 214.298 210.093 214.22 210.067 214.141C209.741 213.379 209.897 212.327 210.601 211.604C210.719 211.486 211.253 210.961 212.101 210.816C213.327 210.619 214.697 211.329 215.479 212.603C215.127 211.526 214.384 210.737 213.64 210.409C213.04 210.146 212.245 210.08 212.114 210.08C211.945 210.08 211.762 210.08 211.762 210.08C211.749 210.08 211.723 210.08 211.723 210.08C210.667 210.172 209.793 210.566 209.206 211.25C207.928 212.735 208.423 214.877 208.462 214.982C208.971 216.848 210.706 217.807 211.149 218.057C212.727 218.937 213.823 218.622 214.423 219.634C214.905 220.462 214.605 221.369 214.579 221.447C214.097 222.748 212.493 223.077 212.284 223.116C210.888 223.392 209.362 222.762 208.358 221.553C208.436 221.684 209.78 223.787 212.284 223.852C212.558 223.852 213.732 223.852 214.84 223.13C216.184 222.249 217.005 220.357 216.51 218.964C216.014 217.571 214.24 216.835 213.353 216.467L213.327 216.506Z" fill="#595757"/>
<path d="M159.305 216.506C159.305 216.506 157.127 215.599 156.422 214.772C156.266 214.588 156.148 214.364 156.148 214.364C156.109 214.298 156.07 214.22 156.044 214.141C155.718 213.379 155.875 212.327 156.579 211.604C156.696 211.486 157.231 210.961 158.079 210.816C159.305 210.619 160.674 211.329 161.457 212.603C161.105 211.526 160.361 210.737 159.618 210.409C159.018 210.146 158.222 210.08 158.092 210.08C157.922 210.08 157.74 210.08 157.74 210.08C157.727 210.08 157.701 210.08 157.701 210.08C156.644 210.172 155.77 210.566 155.183 211.25C153.905 212.735 154.401 214.877 154.44 214.982C154.949 216.848 156.683 217.807 157.127 218.057C158.705 218.937 159.8 218.622 160.4 219.634C160.883 220.462 160.583 221.369 160.557 221.447C160.074 222.748 158.47 223.077 158.261 223.116C156.866 223.392 155.34 222.762 154.336 221.553C154.414 221.684 155.757 223.787 158.261 223.852C158.535 223.852 159.709 223.852 160.818 223.13C162.161 222.249 162.983 220.357 162.487 218.964C161.992 217.571 160.218 216.835 159.331 216.467L159.305 216.506Z" fill="#595757"/>
<path d="M233.452 222.919C233.204 222.696 232.865 222.564 232.513 222.564H228.209V217.203H232.709V216.546H228.209V211.618H232.513C232.865 211.618 233.204 211.486 233.452 211.263L234 210.777H226.279V223.419H234L233.452 222.932V222.919Z" fill="#595757"/>
<path d="M199.581 216.887V209.738L198.459 210.75C197.95 211.21 197.65 211.854 197.65 212.511V221.263C197.65 221.487 197.689 221.697 197.755 221.894C196.959 220.869 196.542 220.16 196.307 219.647C196.229 219.476 195.824 218.556 195.198 217.321C195.068 217.071 194.951 216.835 194.768 216.48C193.933 214.903 193.255 213.628 192.733 212.84C192.172 211.999 191.181 210.829 189.381 209.738V216.887V224.036L190.503 223.024C191.012 222.564 191.312 221.921 191.312 221.263V212.511C191.312 212.183 191.233 211.867 191.103 211.565C191.625 212.209 192.055 212.84 192.407 213.418C192.903 214.246 192.916 214.443 194.09 216.822C195.198 219.069 195.759 220.212 196.32 220.974C196.92 221.802 197.937 222.946 199.581 224.036V216.887Z" fill="#595757"/>
</g>
<rect x="1" y="1" width="272" height="110" stroke="#D9D9D9" stroke-width="2"/>
<line x1="137.5" y1="2.18557e-08" x2="137.5" y2="112" stroke="#D9D9D9" stroke-dasharray="2 2"/>
<path d="M1 55.5H272.5" stroke="#D9D9D9" stroke-dasharray="2 2"/>
<g clip-path="url(#clip1_197_143)">
<path d="M120.028 66.8083H99.838C99.0708 66.8083 98.3305 67.1005 97.7787 67.6317L96.5942 68.7739H123.271L122.087 67.6317C121.535 67.1138 120.808 66.8083 120.028 66.8083Z" fill="#595757"/>
<path d="M97.3884 47.5782C95.9886 49.1187 95.8406 51.0046 94.8715 52.399C94.2119 53.3685 93.0948 54.2184 91.1162 53.5013C91.5738 54.0059 92.5564 54.9223 93.8754 54.8825C94.2927 54.8825 95.4368 54.8161 96.5539 53.4083C97.6711 52.0006 97.7249 50.5397 98.6267 48.7602C99.1113 47.7907 99.8785 46.7017 101.063 45.9845H103.432C104.038 46.3431 104.71 46.8079 105.37 47.4719C107.564 49.6765 107.106 51.4561 109.018 53.1029C110.014 53.9661 111.158 54.3645 112.208 54.5504C111.373 55.9316 110.417 57.2597 109.26 58.4549C107.456 60.3274 105.424 61.6688 103.391 62.6383V56.4363H108.479V55.5996H103.391V49.3843H101.346V55.5996H96.2578V56.4363H101.346V63.4882C98.3979 64.5506 95.5444 64.9491 93.3505 65.042C96.2309 65.374 103.136 65.6928 109.26 61.0579C111.696 59.2252 113.5 56.9808 114.873 54.6832C116.986 54.6168 118.628 53.9395 119.503 53.488C117.874 53.7536 116.555 53.7935 115.411 53.7271C116.057 52.5318 116.609 51.3233 117.04 50.1679C118.197 47.1001 118.695 44.4174 118.897 43.0496H122.37C122.302 45.1611 122.114 52.8771 123.554 57.4987C124.173 59.4775 125.721 62.9171 130.257 66.2373C127.902 63.4351 126.744 60.8188 126.152 59.1056C125.102 56.091 124.994 52.6912 124.792 45.865C124.765 44.8159 124.725 43.0628 124.967 40.845C125.021 40.3005 125.088 39.8091 125.156 39.3709C124.927 39.3443 124.187 39.2779 123.487 39.849C122.76 40.4466 122.464 41.4426 122.41 42.1996H119.018C119.112 41.2434 119.395 38.3217 119.61 33.7931V30.0745H125.156C126.098 30.0745 127 29.7824 127.659 29.2511L129.113 28.109H119.61V27.777C119.61 26.4091 119.22 25.0943 118.534 24.1249L117.053 22.0398C117.053 22.0398 117.053 22.0398 117.04 22.0398V28.109H103.391V26.5419C103.391 25.4529 103.082 24.4038 102.53 23.6202L101.332 21.9336V28.0957H91.6008L93.0544 29.2379C93.7139 29.7558 94.6157 30.0612 95.5579 30.0612H101.346V38.242H94.01V39.0787H101.346V45.1213H92.1122V45.958H99.865C99.6362 46.0509 99.3939 46.1439 99.1516 46.2767C98.4114 46.6618 97.9403 46.9142 97.375 47.5384L97.3884 47.5782ZM103.405 39.1318H110.74V38.2951H103.405V30.1144H117.08C117.08 30.7518 117.08 31.4955 117.066 32.3322C116.999 34.9086 116.892 38.4412 116.313 42.2527H111.79V43.0894H116.192C115.613 46.4892 114.63 50.0484 112.948 53.2888C111.844 52.9037 111.077 52.3459 110.552 51.735C109.166 50.1413 108.547 47.379 106.487 46.4892C106.043 46.29 105.572 46.1439 105.141 46.0111H112.652V45.1744H103.418V39.1318H103.405Z" fill="#595757"/>
<path d="M117.672 80.9919C117.201 79.9427 116.03 79.5045 115.047 80.0091C114.065 80.5138 113.661 81.7754 114.132 82.8113C114.603 83.8605 115.774 84.2987 116.757 83.7941C117.739 83.2894 118.143 82.0277 117.672 80.9919Z" fill="#595757"/>
<path d="M127.888 72.5056H93.5118C92.5697 72.5056 91.6679 72.7978 91.0083 73.329L89.5547 74.4712H103.136C100.605 76.4898 100.242 80.6067 101.17 83.3956C101.924 85.6799 103.485 86.9548 103.849 87.2337C108.25 90.6601 114.98 88.0704 114.967 88.0571C114.967 88.0571 111.386 89.5578 107.806 87.8313C107.133 87.5126 104.064 85.9057 103.364 82.3066C102.893 79.863 103.553 76.7952 105.72 75.0953C106.056 74.8297 106.406 74.6172 106.743 74.4579H131.818L130.364 73.3158C129.705 72.7978 128.803 72.4924 127.861 72.4924L127.888 72.5056Z" fill="#595757"/>
<path d="M158.549 58.0963C158.549 57.9768 158.549 57.8706 158.549 57.7643C158.549 57.6713 158.562 57.5651 158.589 57.4854C158.603 57.3925 158.63 57.2862 158.643 57.1667C158.441 57.1932 158.199 57.2198 157.93 57.2331C157.661 57.2597 157.338 57.2729 156.961 57.2862C156.584 57.2995 156.14 57.3128 155.628 57.3128C155.117 57.3128 154.498 57.3128 153.784 57.3128C153.071 57.3128 152.465 57.3128 151.954 57.3128C151.442 57.3128 150.998 57.2995 150.621 57.2862C150.244 57.2729 149.921 57.2597 149.652 57.2331C149.383 57.2065 149.141 57.18 148.925 57.1667C148.979 57.4057 149.006 57.6448 149.033 57.8971C149.06 58.1494 149.073 58.3619 149.073 58.5479V62.6648C149.073 62.8773 149.073 63.1429 149.046 63.4616C149.02 63.7804 148.993 64.1124 148.952 64.4577H150.069V63.1031H157.539V64.3249H158.684C158.643 63.9929 158.603 63.6741 158.589 63.3819C158.576 63.0898 158.562 62.7976 158.562 62.532V58.0963H158.549ZM157.526 62.2664H150.056V60.6063H157.526V62.2664ZM157.526 59.7697H150.056V58.2026H157.526V59.7697Z" fill="#595757"/>
<path d="M154.497 49.225C153.3 49.3179 152.156 49.3711 151.065 49.3711C149.988 49.3711 148.952 49.3047 147.97 49.1586C148.239 49.5703 148.373 49.9953 148.387 50.4601C148.643 50.4601 148.952 50.4601 149.329 50.4335C149.706 50.4202 150.096 50.3937 150.513 50.3671C150.931 50.3405 151.375 50.314 151.846 50.3007C152.317 50.2741 152.775 50.2476 153.246 50.2077V51.9342C152.465 51.9342 151.765 51.9342 151.133 51.9342C150.5 51.9342 149.921 51.9342 149.383 51.9209C148.844 51.9209 148.346 51.9076 147.889 51.8811C147.431 51.8678 146.987 51.8412 146.556 51.8147V52.8904C147.256 52.8506 148.037 52.824 148.871 52.7974C149.706 52.7709 150.702 52.7576 151.846 52.7576C150.85 53.7935 149.854 54.5903 148.844 55.1481C147.835 55.7191 146.812 56.1308 145.789 56.4097C146.004 56.5824 146.179 56.7417 146.314 56.9011C146.449 57.0605 146.57 57.273 146.691 57.5386C147.297 57.2597 147.848 56.9542 148.36 56.6621C148.871 56.3566 149.383 56.0246 149.881 55.666C150.379 55.2942 150.877 54.8825 151.375 54.4177C151.873 53.9528 152.411 53.3951 152.977 52.7576H153.232V55.4402C153.232 55.5996 153.232 55.759 153.219 55.9051C153.219 56.0512 153.192 56.2105 153.178 56.3699C153.178 56.5292 153.152 56.7019 153.138 56.9011H154.336C154.336 56.7152 154.309 56.5425 154.309 56.3832C154.309 56.2371 154.309 56.091 154.296 55.9449C154.296 55.7988 154.296 55.6395 154.296 55.4801V52.7443H154.457C154.834 53.1958 155.224 53.6208 155.668 54.0325C156.099 54.4309 156.584 54.8293 157.122 55.2012C157.661 55.5731 158.253 55.9449 158.912 56.3035C159.572 56.6621 160.299 57.0339 161.12 57.4058C161.214 57.1933 161.308 56.9941 161.416 56.8214C161.523 56.6488 161.658 56.4628 161.833 56.2769C161.133 56.0644 160.501 55.8387 159.922 55.5863C159.343 55.3473 158.791 55.095 158.28 54.8028C157.768 54.5239 157.284 54.2052 156.826 53.8732C156.368 53.5411 155.911 53.156 155.467 52.7443C156.126 52.7443 156.718 52.7443 157.23 52.7443C157.741 52.7443 158.212 52.7443 158.63 52.7576C159.047 52.7576 159.437 52.7709 159.801 52.7974C160.164 52.8107 160.514 52.8373 160.864 52.8638V51.7881C160.043 51.8412 159.114 51.8678 158.064 51.8811C157.028 51.8944 155.763 51.9076 154.296 51.9076V50.1148C154.888 50.0484 155.426 50.0085 155.924 49.9554C156.422 49.9156 156.813 49.8757 157.136 49.8359C157.741 49.7695 158.199 49.7296 158.508 49.7164C158.818 49.7164 159.087 49.7429 159.289 49.796C159.491 49.8624 159.612 49.8359 159.693 49.7429C159.76 49.65 159.733 49.5437 159.612 49.4242C159.478 49.3047 159.356 49.1453 159.208 48.9594C159.074 48.7734 158.939 48.5742 158.832 48.3618C158.549 48.468 158.28 48.561 157.997 48.6406C157.714 48.7203 157.418 48.7867 157.082 48.8531C156.745 48.9195 156.382 48.9727 155.965 49.0258C155.547 49.0789 155.063 49.132 154.511 49.1851L154.497 49.225Z" fill="#595757"/>
<path d="M227.059 52.824C227.059 52.6381 227.059 52.399 227.072 52.1201C226.911 52.1201 226.776 52.1467 226.655 52.1467C226.534 52.1467 226.426 52.1467 226.305 52.16C226.184 52.16 226.063 52.16 225.915 52.16H224.986C224.865 52.16 224.744 52.16 224.623 52.16C224.502 52.16 224.394 52.16 224.273 52.1467C224.152 52.1467 224.004 52.1334 223.829 52.1201C223.829 52.2928 223.842 52.492 223.856 52.7443C223.856 52.9966 223.856 53.2357 223.856 53.4747C223.856 53.7138 223.856 53.9794 223.856 54.2583C223.856 54.5372 223.842 54.7629 223.829 54.9356C223.99 54.8957 224.125 54.8692 224.246 54.8559C224.367 54.8426 224.475 54.8293 224.582 54.8161C224.69 54.8028 224.811 54.7895 224.932 54.7895H225.403C225.74 54.7895 226.023 54.7895 226.251 54.8161C226.48 54.8293 226.749 54.8692 227.045 54.9356C227.045 54.7629 227.032 54.5372 227.032 54.2583V52.824H227.059ZM226.224 54.1786H224.703V52.8904H226.224V54.1786Z" fill="#595757"/>
<path d="M220.14 50.6991C220.315 50.6991 220.477 50.6725 220.652 50.6725C220.827 50.6725 221.015 50.6725 221.231 50.6725V51.7084H222.132V50.6725H224.582V51.7482H225.43V50.6725C225.672 50.6725 225.874 50.6725 226.049 50.6725C226.211 50.6725 226.372 50.6858 226.534 50.6991C226.695 50.6991 226.857 50.7256 227.018 50.7522C227.193 50.7655 227.382 50.7921 227.624 50.8186V49.6632C227.355 49.7031 227.139 49.7296 226.964 49.7429C226.789 49.7562 226.628 49.7695 226.48 49.7827C226.332 49.7827 226.17 49.7827 226.022 49.796C225.861 49.796 225.672 49.796 225.443 49.796V49.3046C225.443 49.1187 225.47 48.9461 225.511 48.8265C225.551 48.707 225.592 48.6273 225.645 48.6008C225.74 48.5344 225.78 48.4812 225.767 48.4148C225.767 48.3484 225.686 48.3219 225.551 48.3219C225.336 48.3219 224.972 48.282 224.474 48.2156C224.515 48.4281 224.555 48.6672 224.569 48.9062C224.582 49.1453 224.596 49.4507 224.596 49.796H222.146V49.1984C222.146 49.0921 222.159 48.9859 222.186 48.8664C222.213 48.7469 222.254 48.6805 222.294 48.6406C222.402 48.5875 222.442 48.5211 222.415 48.4414C222.388 48.375 222.334 48.3352 222.24 48.3352C222.065 48.3352 221.89 48.3352 221.729 48.3219C221.567 48.3219 221.352 48.282 221.109 48.2289C221.136 48.4148 221.15 48.6273 221.177 48.8797C221.19 49.132 221.204 49.4374 221.217 49.796C221.002 49.796 220.813 49.796 220.652 49.796C220.49 49.796 220.315 49.7827 220.154 49.7695C219.992 49.7695 219.817 49.7429 219.629 49.7296C219.454 49.7163 219.239 49.6898 219.01 49.6632V50.8186C219.239 50.7921 219.44 50.7788 219.629 50.7522C219.804 50.7389 219.979 50.7124 220.154 50.6991H220.14Z" fill="#595757"/>
<path d="M222.94 52.8373C222.94 52.6381 222.94 52.399 222.954 52.1334C222.806 52.16 222.59 52.1733 222.308 52.1865C222.025 52.1865 221.702 52.1865 221.325 52.1865C220.948 52.1865 220.652 52.1865 220.41 52.1865C220.168 52.1865 219.952 52.16 219.737 52.1334C219.764 52.3061 219.777 52.5186 219.777 52.7576C219.777 53.0099 219.777 53.249 219.777 53.5013C219.777 53.7536 219.777 53.9927 219.777 54.2583C219.777 54.5239 219.75 54.7497 219.737 54.9223C219.885 54.9223 220.019 54.8958 220.127 54.8958C220.235 54.8958 220.343 54.8958 220.464 54.8958H222.16C222.281 54.8958 222.402 54.8958 222.523 54.8958C222.644 54.8958 222.792 54.909 222.954 54.9223C222.954 54.7497 222.94 54.5372 222.94 54.2583V52.8373ZM222.079 54.1653H220.571V52.8638H222.079V54.1653Z" fill="#595757"/>
<path d="M219.279 59.3845C219.468 59.1189 219.656 58.8666 219.818 58.6408C219.979 58.4018 220.127 58.1893 220.275 57.9635V60.1946C220.275 60.8852 220.262 61.5625 220.221 62.1867C220.195 62.8242 220.141 63.4218 220.087 63.9663H221.218V62.6515H224.111C224.771 62.6515 225.35 62.6515 225.848 62.6914C226.346 62.7179 226.79 62.7445 227.18 62.7976V61.6953C226.817 61.7352 226.426 61.7617 225.982 61.7883C225.538 61.8149 225.054 61.8281 224.529 61.8414V60.6196C225.054 60.6196 225.498 60.6462 225.888 60.6595C226.278 60.6727 226.642 60.7126 226.965 60.7524V59.69C226.628 59.7431 226.265 59.7697 225.875 59.783C225.484 59.7962 225.027 59.8095 224.515 59.8228V58.7205C225 58.7205 225.43 58.7205 225.807 58.7471C226.184 58.7604 226.534 58.8002 226.857 58.84V57.7643C226.534 57.8042 226.184 57.8307 225.794 57.844C225.417 57.8573 224.986 57.8838 224.515 57.9104V56.9277C225.04 56.9542 225.552 56.9675 226.05 56.9941C226.534 57.0073 226.924 57.0472 227.234 57.0737V55.998C226.938 56.0246 226.521 56.0511 226.023 56.0644C225.511 56.091 224.986 56.1043 224.461 56.1175C224.327 55.8785 224.192 55.6527 224.058 55.4402C223.923 55.2278 223.734 54.9887 223.506 54.6965L222.792 55.2012C222.994 55.4402 223.156 55.6262 223.25 55.7457C223.344 55.8652 223.438 55.998 223.519 56.1308H221.298C221.406 55.9715 221.5 55.8652 221.581 55.7855C221.662 55.7191 221.729 55.666 221.796 55.6394C221.931 55.5996 221.998 55.5332 221.985 55.427C221.971 55.3207 221.904 55.2543 221.756 55.2012C221.594 55.1613 221.446 55.1215 221.312 55.0817C221.177 55.0285 221.043 54.9489 220.908 54.8426C220.706 55.4668 220.41 56.1308 220.006 56.848C219.602 57.5651 219.077 58.2026 218.445 58.7869C218.66 58.8268 218.808 58.8799 218.929 58.9596C219.037 59.0392 219.172 59.1721 219.306 59.3447L219.279 59.3845ZM221.204 56.9542H223.559V57.937H221.204V56.9542ZM221.204 58.7338H223.559V59.8494H221.204V58.7338ZM221.204 60.6196H223.559V61.8414H221.204V60.6196Z" fill="#595757"/>
<path d="M229.805 49.1586C229.536 49.1586 229.293 49.1453 229.091 49.132C228.89 49.1187 228.688 49.1054 228.513 49.0922C228.338 49.0656 228.163 49.0523 227.988 49.0258C228.015 49.1984 228.028 49.464 228.055 49.8491C228.069 50.2343 228.082 50.6061 228.082 50.978V56.4761C228.082 56.848 228.082 57.2198 228.055 57.5784C228.028 57.937 228.015 58.2291 227.988 58.4549C228.109 58.4283 228.203 58.4151 228.297 58.3885C228.392 58.3752 228.486 58.3619 228.607 58.3354C228.715 58.3354 228.849 58.3088 228.984 58.3088C229.118 58.3088 229.293 58.3088 229.509 58.3088C229.509 59.026 229.441 59.69 229.253 60.2743C229.078 60.8719 228.836 61.3899 228.54 61.8547C228.244 62.3062 227.894 62.6914 227.49 62.9968C227.086 63.3023 226.669 63.5148 226.251 63.6476C226.561 63.7804 226.79 63.8999 226.924 64.0194C227.059 64.1389 227.153 64.2717 227.234 64.4444C227.853 63.9397 228.351 63.4749 228.755 63.0632C229.159 62.6382 229.482 62.2 229.724 61.7485C229.966 61.2969 230.141 60.7923 230.249 60.261C230.357 59.7165 230.424 59.0791 230.437 58.3221H231.42V62.625C231.42 62.8109 231.42 62.9835 231.46 63.1296C231.487 63.2757 231.555 63.3952 231.662 63.5015C231.77 63.6077 231.945 63.6741 232.16 63.7272C232.389 63.7804 232.699 63.7936 233.089 63.7936C233.439 63.7936 233.722 63.7671 233.924 63.714C234.139 63.6608 234.314 63.5546 234.448 63.3952C234.583 63.2359 234.691 63.0234 234.771 62.7445C234.852 62.4656 234.933 62.107 235.027 61.6555C234.812 61.6156 234.529 61.443 234.206 61.111C234.179 61.5094 234.125 61.8149 234.072 62.0539C234.018 62.293 233.95 62.4656 233.883 62.5851C233.802 62.7046 233.708 62.7843 233.6 62.8242C233.493 62.864 233.358 62.8773 233.21 62.8773C232.847 62.8773 232.591 62.8242 232.483 62.7445C232.362 62.6515 232.308 62.4922 232.308 62.2531V58.3354C232.591 58.3354 232.847 58.3619 233.035 58.3752C233.237 58.4018 233.452 58.4283 233.708 58.4682C233.681 58.1893 233.668 57.8838 233.654 57.5518C233.654 57.2198 233.641 56.8612 233.641 56.4894V50.9913C233.641 50.6194 233.641 50.2476 233.654 49.8624C233.654 49.4773 233.681 49.1984 233.708 49.039C233.331 49.1054 232.927 49.132 232.483 49.1586C232.039 49.1718 231.474 49.1851 230.787 49.1851C230.397 49.1851 230.074 49.1851 229.805 49.1851V49.1586ZM232.645 57.512H229.024V55.6394H232.645V57.512ZM232.645 54.816H229.024V52.8771H232.645V54.816ZM232.645 50.0882V52.067H229.024V50.0882H232.645Z" fill="#595757"/>
<path d="M159.532 80.3145C159.841 80.3145 160.191 80.3278 160.568 80.3544C160.945 80.3809 161.308 80.4075 161.658 80.4606V79.3982C161.295 79.4513 160.932 79.4779 160.555 79.5044C160.178 79.531 159.828 79.5443 159.518 79.5443V79.1326C159.518 78.7474 159.518 78.4154 159.559 78.1233C159.586 77.8311 159.613 77.5788 159.639 77.353C159.128 77.4061 158.442 77.4327 157.58 77.4592C156.719 77.4858 155.588 77.4991 154.188 77.5124V76.3437C155.319 76.357 156.288 76.3702 157.069 76.3968C157.849 76.4234 158.563 76.4632 159.182 76.5163C159.141 76.2507 159.128 76.0117 159.115 75.7992C159.115 75.5867 159.101 75.3078 159.101 74.9492C159.101 74.5641 159.101 74.2454 159.115 74.0063C159.115 73.754 159.155 73.5282 159.182 73.329C158.563 73.3821 157.849 73.4087 157.069 73.4353C156.288 73.4618 155.319 73.4751 154.175 73.4884V72.3197C155.763 72.3197 157.109 72.333 158.226 72.3728C159.343 72.3994 160.339 72.4392 161.201 72.5056V71.2971C160.757 71.3369 160.299 71.3635 159.801 71.3768C159.303 71.3901 158.778 71.4166 158.213 71.4299C157.647 71.4565 157.028 71.4565 156.369 71.4697C155.709 71.4697 154.969 71.4697 154.175 71.4697V70.7393C154.175 70.3409 154.256 70.1019 154.417 70.0222C154.565 69.9425 154.606 69.8362 154.552 69.73C154.484 69.6238 154.363 69.5839 154.161 69.6105C154.027 69.637 153.852 69.637 153.65 69.6105C153.448 69.5839 153.233 69.5574 153.004 69.5175C153.031 69.6238 153.044 69.73 153.058 69.8495C153.071 69.9691 153.085 70.0886 153.098 70.2347C153.098 70.3807 153.098 70.5534 153.112 70.7526C153.112 70.9518 153.112 71.1909 153.112 71.483C151.766 71.483 150.527 71.4698 149.383 71.4299C148.239 71.4033 147.23 71.3635 146.341 71.2971V72.5056C146.785 72.4791 147.23 72.4525 147.701 72.4392C148.158 72.4127 148.67 72.3994 149.208 72.3728C149.747 72.3463 150.339 72.3463 150.985 72.333C151.617 72.333 152.331 72.333 153.125 72.333V73.5017C152.667 73.5017 152.196 73.5017 151.712 73.5017C151.227 73.5017 150.756 73.4751 150.298 73.4618C149.841 73.4485 149.397 73.422 148.993 73.4087C148.576 73.3821 148.212 73.3689 147.889 73.3423C147.93 73.5415 147.943 73.7673 147.97 74.0063C147.983 74.2454 147.997 74.5641 147.997 74.9758C147.997 75.3211 147.997 75.6133 147.97 75.8257C147.956 76.0515 147.93 76.2773 147.889 76.503C148.535 76.4366 149.276 76.3968 150.097 76.3835C150.931 76.357 151.927 76.3437 153.125 76.3437V77.5124C152.371 77.5124 151.698 77.5124 151.093 77.5124C150.487 77.5124 149.948 77.4991 149.464 77.4725C148.979 77.4592 148.549 77.4327 148.185 77.4194C147.822 77.4061 147.472 77.3796 147.149 77.353V78.3756C147.714 78.3225 148.468 78.2959 149.41 78.2561C150.352 78.2295 151.591 78.2162 153.125 78.2162V79.5708H148.939C148.777 79.5708 148.576 79.5708 148.333 79.5708C148.091 79.5708 147.835 79.5576 147.566 79.531C147.297 79.5044 147.014 79.4912 146.732 79.4779C146.449 79.4646 146.18 79.438 145.938 79.4115V80.4739C146.193 80.4473 146.462 80.4208 146.745 80.4075C147.028 80.3809 147.297 80.3677 147.566 80.3544C147.835 80.3544 148.078 80.3278 148.32 80.3278C148.562 80.3278 148.751 80.3278 148.912 80.3278H153.112V81.709C151.792 81.709 150.662 81.709 149.72 81.6824C148.778 81.6559 147.916 81.6293 147.135 81.5629V82.5855C147.889 82.5324 148.737 82.5058 149.693 82.466C150.635 82.4394 151.779 82.4261 153.112 82.4261V83.5948C153.112 83.887 153.085 84.1128 153.017 84.2987C152.95 84.4846 152.815 84.6041 152.614 84.6838C152.412 84.7635 152.116 84.7901 151.725 84.7768C151.348 84.7635 150.837 84.6971 150.218 84.5909C150.433 84.8432 150.581 85.0822 150.662 85.3213C150.743 85.5603 150.783 85.8127 150.796 86.0783C151.496 86.0783 152.075 86.0384 152.519 85.9587C152.963 85.8791 153.3 85.7595 153.556 85.5869C153.798 85.4142 153.973 85.2018 154.054 84.9361C154.134 84.6705 154.188 84.3518 154.188 83.98V82.4129H158.522V83.3691H159.639C159.613 83.2097 159.599 83.0636 159.586 82.9441C159.572 82.8246 159.559 82.6785 159.545 82.5457C159.532 82.4129 159.532 82.2668 159.532 82.1207V80.3411V80.3145ZM154.202 74.2055H158.051V75.6929H154.202V74.2055ZM153.138 75.6929H149.047V74.2055H153.138V75.6929ZM158.536 81.6824H154.202V80.3013H158.536V81.6824ZM158.536 79.5576H154.202V78.2029H158.536V79.5576Z" fill="#595757"/>
<path d="M191.754 71.8151C191.794 71.7088 191.835 71.6026 191.888 71.4963C192.01 71.2174 192.104 71.0182 192.198 70.8721C192.292 70.7261 192.413 70.6198 192.588 70.5269C192.71 70.4604 192.777 70.394 192.79 70.3144C192.817 70.2347 192.75 70.1683 192.588 70.1417C192.427 70.1019 192.238 70.0488 192.037 69.9558C191.835 69.8628 191.633 69.7566 191.431 69.6238C191.269 70.3276 191.081 70.9651 190.852 71.5362C190.637 72.1072 190.394 72.6119 190.139 73.0634C189.883 73.515 189.614 73.9134 189.331 74.2719C189.048 74.6305 188.766 74.9625 188.47 75.2414C188.685 75.2945 188.874 75.3742 189.048 75.4672C189.21 75.5601 189.372 75.6797 189.52 75.8523C189.856 75.3875 190.152 74.936 190.421 74.4844C190.691 74.0462 190.96 73.5548 191.215 73.0103H192.427C192.144 74.6571 191.714 76.0382 191.121 77.1671C190.529 78.2959 189.695 79.2521 188.618 80.049C188.887 80.0755 189.089 80.1419 189.223 80.2614C189.358 80.381 189.506 80.5536 189.654 80.7661C190.139 80.2216 190.569 79.7037 190.933 79.199C191.296 78.6943 191.619 78.1498 191.915 77.5655C192.198 76.9812 192.467 76.3171 192.71 75.6C192.952 74.8696 193.194 74.0196 193.423 73.0236H194.782C194.621 74.5641 194.419 75.8922 194.177 76.9679C193.934 78.0569 193.611 78.9998 193.194 79.7966C192.777 80.6067 192.265 81.3106 191.66 81.9215C191.041 82.5324 190.287 83.13 189.385 83.7144C189.695 83.7808 189.937 83.8737 190.112 83.9933C190.273 84.1128 190.435 84.2854 190.569 84.5245C191.215 83.9401 191.781 83.3956 192.252 82.9043C192.723 82.4129 193.127 81.9215 193.463 81.4434C193.8 80.9653 194.082 80.4606 194.311 79.9427C194.54 79.4248 194.742 78.8271 194.917 78.1764C195.078 77.5257 195.226 76.782 195.348 75.932C195.469 75.0953 195.603 74.1126 195.738 72.997H196.922C196.922 73.4353 196.922 73.9532 196.895 74.5508C196.882 75.1485 196.855 75.7726 196.815 76.4499C196.774 77.114 196.734 77.8178 196.694 78.535C196.653 79.2521 196.599 79.9693 196.532 80.6731C196.465 81.5231 196.371 82.2004 196.249 82.6918C196.128 83.1831 195.953 83.555 195.711 83.794C195.469 84.0331 195.146 84.1526 194.728 84.1659C194.311 84.1659 193.773 84.1128 193.1 83.9933C193.329 84.2589 193.49 84.4846 193.571 84.6706C193.652 84.8565 193.692 85.0955 193.679 85.3744C194.459 85.3744 195.078 85.308 195.536 85.2151C195.994 85.1221 196.371 84.9229 196.64 84.6174C196.909 84.312 197.111 83.887 197.245 83.3425C197.367 82.798 197.488 82.041 197.568 81.1114C197.568 80.9387 197.609 80.5935 197.636 80.0888C197.676 79.5974 197.717 78.9998 197.757 78.3092C197.797 77.6186 197.851 76.8616 197.892 76.0515C197.932 75.2414 197.972 74.4313 197.999 73.6212C198.026 73.1697 198.053 72.8111 198.08 72.5853C198.107 72.3463 198.147 72.1338 198.174 71.9611C198.013 71.9877 197.838 72.001 197.649 72.0275C197.461 72.0408 197.259 72.0674 197.03 72.0807C196.801 72.0807 196.532 72.1072 196.223 72.1072C195.913 72.1072 195.55 72.1072 195.132 72.1072H191.646C191.687 72.0143 191.74 71.908 191.781 71.8151H191.754Z" fill="#595757"/>
<path d="M183.517 76.7554C183.692 76.264 183.84 75.8125 183.948 75.4141C184.069 75.0157 184.163 74.604 184.244 74.179H185.994V78.3623C185.522 78.5615 185.038 78.7475 184.553 78.9068C184.069 79.0662 183.477 79.2388 182.777 79.4248C182.911 79.6638 183.019 79.8896 183.1 80.0888C183.18 80.288 183.248 80.5005 183.302 80.6997C183.759 80.4606 184.203 80.2349 184.648 80.0091C185.092 79.7833 185.536 79.5709 185.98 79.3716V81.5231C185.98 82.4394 185.967 83.2363 185.926 83.9269C185.886 84.6174 185.845 85.2682 185.792 85.8924H187.151C187.097 85.2815 187.057 84.6307 187.03 83.9401C187.003 83.2495 186.99 82.4394 186.99 81.5231V78.8936C187.326 78.7209 187.663 78.5615 187.986 78.4155C188.309 78.2694 188.645 78.1233 188.982 77.9772C188.834 77.8046 188.739 77.6452 188.699 77.4858C188.659 77.3265 188.659 77.1405 188.699 76.928C188.362 77.114 188.053 77.2866 187.784 77.446C187.501 77.5921 187.245 77.7381 186.99 77.871V74.1657C187.393 74.1657 187.743 74.1657 188.053 74.2055C188.349 74.2321 188.632 74.2719 188.901 74.3251V73.1431C188.632 73.2095 188.349 73.2493 188.053 73.2626C187.757 73.2892 187.393 73.3025 186.99 73.3025V71.7354C186.99 71.3768 187.016 71.0315 187.07 70.7128C187.124 70.394 187.191 70.1683 187.286 70.062C187.434 69.8761 187.501 69.7433 187.474 69.6902C187.447 69.6371 187.353 69.6238 187.191 69.6238C187.07 69.6238 186.882 69.6238 186.613 69.5707C186.344 69.5308 186.074 69.4777 185.778 69.398C185.832 69.6105 185.886 69.9292 185.913 70.3542C185.953 70.7792 185.967 71.3635 185.967 72.094V73.2759H184.419C184.54 72.8509 184.648 72.5189 184.755 72.2799C184.863 72.0408 184.93 71.8947 184.957 71.8815C185.078 71.7885 185.132 71.6823 185.119 71.5627C185.105 71.4432 185.011 71.3768 184.863 71.3502C184.715 71.3237 184.553 71.2838 184.365 71.244C184.19 71.1909 184.002 71.1245 183.8 71.0315C183.8 71.2174 183.813 71.3901 183.8 71.5627C183.8 71.7354 183.773 71.9346 183.746 72.1338C183.705 72.3463 183.665 72.5853 183.611 72.8377C183.557 73.1033 183.477 73.4087 183.382 73.7673C183.302 74.0727 183.221 74.3649 183.14 74.604C183.059 74.843 182.979 75.0821 182.898 75.2813C182.817 75.4805 182.736 75.6797 182.642 75.8523C182.548 76.0382 182.44 76.2109 182.333 76.3968C182.561 76.3968 182.763 76.4367 182.938 76.4898C183.113 76.5429 183.288 76.6093 183.477 76.7023L183.517 76.7554Z" fill="#595757"/>
<path d="M231.958 76.8483C232.577 76.8483 233.075 76.8483 233.479 76.8749C233.883 76.8749 234.26 76.9147 234.61 76.9679V75.7859C234.408 75.8125 234.192 75.8257 233.99 75.839C233.775 75.839 233.56 75.8656 233.304 75.8656C233.062 75.8656 232.779 75.8656 232.47 75.8789C232.16 75.8921 231.81 75.8789 231.406 75.8789H228.068V72.333C228.62 72.2931 229.226 72.24 229.872 72.1869C230.518 72.1205 231.137 72.0408 231.716 71.9611C232.227 71.8947 232.644 71.8549 232.981 71.8416C233.304 71.8416 233.587 71.8549 233.802 71.908C234.017 71.9611 234.152 71.9346 234.192 71.8283C234.233 71.7221 234.165 71.6026 234.017 71.4565C233.856 71.2971 233.721 71.151 233.6 70.9917C233.479 70.8456 233.358 70.6596 233.237 70.4206C232.779 70.5932 232.308 70.7393 231.823 70.8721C231.352 71.0049 230.854 71.1112 230.343 71.1909C229.831 71.2705 229.293 71.3237 228.714 71.3369C228.149 71.3635 227.543 71.3502 226.897 71.2971C226.951 71.7354 226.991 72.3728 227.032 73.1829C227.072 73.993 227.072 75.0422 227.072 76.3038C227.072 77.5655 227.045 78.5482 226.991 79.3849C226.938 80.2083 226.816 80.9387 226.641 81.5496C226.466 82.1605 226.184 82.7183 225.82 83.2097C225.457 83.7011 224.959 84.219 224.34 84.7768C224.569 84.8432 224.797 84.9494 225.04 85.0955C225.269 85.2549 225.47 85.4143 225.632 85.5869C226.157 84.9627 226.588 84.3651 226.911 83.794C227.234 83.223 227.476 82.6121 227.651 81.948C227.826 81.284 227.934 80.5536 228.001 79.7302C228.055 78.9201 228.095 77.9373 228.095 76.8218H230.895V82.8644C230.895 83.4089 230.895 83.9268 230.868 84.4182C230.841 84.9096 230.827 85.4275 230.787 85.9322H232.093C232.066 85.6799 232.052 85.4408 232.039 85.2018C232.039 84.9627 232.012 84.7237 231.998 84.4979C231.998 84.2589 231.985 84.0065 231.985 83.7409V76.8218L231.958 76.8483Z" fill="#595757"/>
<path d="M220.558 78.6811C220.544 79.4912 220.504 80.1818 220.464 80.7661C220.423 81.3505 220.369 81.8418 220.289 82.2535C220.208 82.6519 220.1 83.0105 219.966 83.3292C219.831 83.6347 219.67 83.9269 219.481 84.1792C219.293 84.4448 219.077 84.6971 218.808 84.976C219.037 84.976 219.252 85.0424 219.441 85.1221C219.629 85.2018 219.845 85.3479 220.073 85.5604C220.329 85.2018 220.544 84.8565 220.719 84.5245C220.894 84.1925 221.042 83.8206 221.15 83.4222C221.258 83.0238 221.352 82.5457 221.433 82.0145C221.5 81.4833 221.554 80.8325 221.594 80.0755H224.219C224.434 80.0755 224.623 80.0755 224.798 80.0755C224.959 80.0755 225.121 80.0755 225.269 80.0888C225.417 80.0888 225.565 80.1021 225.713 80.1154C225.686 79.6904 225.673 79.2654 225.673 78.8272C225.673 78.3756 225.673 77.8975 225.673 77.353C225.673 76.782 225.686 76.2508 225.686 75.7859C225.686 75.3211 225.686 74.9094 225.699 74.5907C225.592 74.5907 225.484 74.6173 225.376 74.6305C225.269 74.6305 225.134 74.6571 224.973 74.6571C224.811 74.6571 224.623 74.6571 224.38 74.6571H221.648V72.2135C221.823 72.2135 221.985 72.1869 222.146 72.1736C222.308 72.1604 222.483 72.1338 222.685 72.1072C222.886 72.0807 223.115 72.0408 223.384 71.9877C223.654 71.9346 223.977 71.8815 224.354 71.8018C224.878 71.7088 225.269 71.6424 225.538 71.6159C225.807 71.5893 225.996 71.6026 226.09 71.6291C226.292 71.6955 226.413 71.7088 226.48 71.6557C226.547 71.5893 226.507 71.4698 226.386 71.2971C226.251 71.0979 226.13 70.8987 226.023 70.7261C225.915 70.5534 225.807 70.3409 225.686 70.1152C225.08 70.487 224.367 70.7925 223.532 71.0315C222.698 71.2706 221.662 71.3635 220.45 71.3237C220.504 71.7752 220.544 72.3729 220.571 73.1033C220.598 73.8337 220.598 74.7368 220.585 75.7992C220.585 76.9148 220.558 77.871 220.544 78.6811H220.558ZM221.662 75.5602H224.609V79.1592H221.662V75.5602Z" fill="#595757"/>
<path d="M188.806 53.1028C187.137 53.9661 186.437 56.1175 187.231 57.9104C188.039 59.7032 190.045 60.4469 191.714 59.5837C193.383 58.7205 194.082 56.569 193.288 54.7762C192.481 52.9833 190.475 52.2396 188.806 53.1028Z" fill="#595757"/>
<path d="M69.2574 87.7383C68.7998 87.3001 68.1672 87.0477 67.5211 87.0477H53.5499C53.1731 87.0477 52.8231 87.1407 52.5001 87.3001V82.6386H67.9114V85.0291C67.9114 85.733 68.221 86.4103 68.7594 86.9016L69.9438 87.9774V76.4632L68.7594 77.5389C68.2075 78.0303 67.9114 78.7076 67.9114 79.4115V81.8019H52.5001V77.1007C52.6885 77.1405 52.8635 77.2069 53.0519 77.2069H67.0231C67.6692 77.2069 68.3018 76.9546 68.7594 76.5163L69.7554 75.5601H50.3062L50.4542 75.6929V88.6945H70.2534L69.2574 87.7383Z" fill="#595757"/>
<path d="M45.4471 29.5035H51.4367V34.4836H44.1011L45.2856 35.6258C45.8374 36.1437 46.5643 36.4492 47.3449 36.4492H57.5877C58.3549 36.4492 59.0952 36.157 59.6471 35.6258L60.8315 34.4836H53.4825V29.5035H57.9512C58.8933 29.5035 59.7951 29.2113 60.4547 28.6801L61.9083 27.5379H53.4825V22.4781H51.4367V27.5512H41.5034L42.9571 28.6934C43.6166 29.2113 44.5318 29.5167 45.4606 29.5167L45.4471 29.5035Z" fill="#595757"/>
<path d="M65.9327 34.0055V24.9084C65.9327 24.3639 65.7308 23.846 65.3808 23.4077C66.1615 24.178 66.8345 24.9084 67.3863 25.5592C68.8669 27.3122 69.8225 28.8527 70.1455 29.3839C71.5588 31.6947 71.4646 32.2924 72.5279 33.7001C73.174 34.5633 74.2507 35.7453 76.014 36.8874V29.4503V22.0266L74.8161 23.0757C74.2642 23.5671 73.9546 24.2178 73.9546 24.9084V34.0188C73.9546 34.2446 73.995 34.4704 74.0623 34.6828C73.2143 33.6204 72.7702 32.8767 72.5144 32.3455C72.4337 32.1728 72.003 31.2166 71.33 29.9284C71.2896 29.862 71.2627 29.7956 71.2223 29.7292C71.2223 29.7292 71.0204 29.3574 70.8589 29.0519C69.5399 26.6349 67.7497 25.0279 67.7497 25.0279C67.5747 24.8686 67.0902 24.4967 66.1346 23.753C65.1924 23.0226 64.3983 22.4382 63.8599 22.0398V29.4636V36.9007L65.0578 35.8515C65.6096 35.3601 65.9192 34.7094 65.9192 34.0188L65.9327 34.0055Z" fill="#595757"/>
<path d="M45.6222 49.8093H57.5878C57.9647 49.7562 60.0375 49.4109 60.8855 47.6977C61.1681 47.1399 61.2489 46.5689 61.2892 46.2767C61.2892 46.2767 61.4911 44.8557 60.9528 43.3284C60.8855 43.1292 60.8047 42.9566 60.8047 42.9566C60.6836 42.6644 60.5355 42.4254 60.4009 42.2262C60.1586 41.8543 59.9298 41.602 59.8491 41.5223C59.6068 41.2832 59.3914 41.1372 59.2838 41.0708C58.6646 40.6591 57.9916 40.513 57.6148 40.4598H45.851C45.851 40.4598 45.851 40.3403 45.851 40.2606C45.8241 39.5701 45.528 38.6139 44.7338 38.0428C44.0205 37.5381 43.2802 37.5913 43.0379 37.6178C43.5628 40.4997 43.5494 45.5861 42.8495 50.8452C42.1092 56.4363 40.3325 60.7259 39 63.382C40.5479 61.7086 42.6072 59.0658 44.1147 55.3473C44.8684 53.5146 45.3261 51.2967 45.6087 49.8226L45.6222 49.8093ZM53.4961 42.598C54.8017 42.5714 55.8515 42.6644 57.1571 42.6378C57.4398 42.7441 58.0051 42.9964 58.4493 43.594C59.1222 44.4971 59.0549 45.5463 59.0146 46.0377C58.9742 46.5157 58.8934 47.6844 57.9916 48.5211C57.6686 48.8265 57.3186 48.9992 56.9956 49.1054H53.4826V42.6113L53.4961 42.598ZM46.0529 42.598H46.8605L51.356 42.7042V49.0922H45.8106C45.9721 47.1266 46.0394 44.9088 46.0394 42.598H46.0529Z" fill="#595757"/>
<path d="M49.2563 73.1431C51.356 71.5495 51.4637 69.9027 53.1596 67.8708C54.2633 66.556 56.0938 65.042 59.1895 64.3116V73.8071H61.693V64.4577C64.4388 65.2412 66.1078 66.6357 67.1442 67.8708C68.8401 69.8894 68.9478 71.5495 71.0475 73.1431C73.1472 74.7368 75.3008 74.8032 76.0949 74.8165C78.5849 74.8563 80.4424 73.8071 81.2903 73.2494C77.5485 74.0595 75.4488 73.09 74.1971 71.9877C72.3935 70.3941 72.0974 68.2692 69.4593 66.5294C68.396 65.8256 67.5076 65.5467 66.1078 65.1084C64.4254 64.5772 62.9313 64.3382 61.693 64.2186V61.4961H79.6079L78.1542 60.354C77.4947 59.8361 76.5929 59.5306 75.6507 59.5306H61.693V54.2052C64.6542 53.2755 67.6826 51.7483 70.3476 49.2648C71.4109 50.0351 72.5012 50.978 73.5376 52.1467C74.6951 53.4349 75.5161 54.7629 76.1218 55.9715C76.2564 56.3433 76.566 56.6222 76.9967 56.7417C77.3063 56.8347 78.7465 57.1534 79.056 57.2464C78.5311 55.7855 77.3736 53.4216 76.0141 51.7881C74.6413 50.1148 73.053 48.9328 71.4513 48.0961C71.6801 47.8438 71.9224 47.618 72.1512 47.3524C74.8701 44.0987 76.2564 40.5528 76.9698 37.8038C76.4045 37.9631 75.8526 38.1225 75.2873 38.2819C74.897 38.3881 74.5605 38.574 74.2913 38.7998H63.039V39.6365H73.7125C73.7125 39.6365 73.7125 39.6498 73.7125 39.663C72.555 41.7746 70.7783 44.351 68.2614 46.8212C65.5021 46.0377 63.1467 46.0642 62.3929 46.0908C63.4832 46.1705 65.3541 46.5556 67.4942 47.5649C67.3865 47.6579 67.3057 47.7508 67.2115 47.8438C59.4049 54.7364 50.4273 55.0949 47.2777 55.0684C48.0988 55.2278 53.2673 56.1043 59.1895 54.8426V59.5041H48.3545C47.4123 59.5041 46.5105 59.7962 45.851 60.3275L44.3973 61.4696H59.1895V64.1522C57.8436 64.2319 56.1476 64.471 54.1825 65.0819C52.7827 65.5201 51.8809 65.799 50.8311 66.5029C48.193 68.2559 47.9103 70.3808 46.0933 71.9612C44.8415 73.0502 42.7418 74.0196 39 73.2228C39.848 73.7806 41.7189 74.8297 44.1954 74.7899C44.9896 74.7899 47.1431 74.7102 49.2428 73.1166L49.2563 73.1431Z" fill="#595757"/>
<path d="M147.714 38.0826V31.2299C147.714 30.712 147.431 30.2206 146.92 29.862L145.803 29.0652V40.2473L146.92 39.4505C147.431 39.0919 147.714 38.5873 147.714 38.0826Z" fill="#595757"/>
<path d="M159.949 34.6031C160.016 34.7492 160.286 35.2937 160.622 35.9312C160.824 36.3163 161.322 37.2592 161.739 37.8569C162.156 38.4678 162.924 39.3841 164.35 40.2473V29.0652L163.462 29.862C163.045 30.2206 162.816 30.7252 162.816 31.2299V38.0826C162.816 38.2553 162.856 38.4146 162.897 38.5873C162.614 38.2022 162.183 37.5913 161.739 36.821C161.187 35.8648 161.039 35.4 160.501 34.3508C159.895 33.1423 159.451 32.3455 158.872 31.5088C158.428 30.858 157.634 29.9417 156.194 29.0785V34.6695V40.2606L157.082 39.4638C157.499 39.1052 157.728 38.6006 157.728 38.0959V31.2432C157.728 30.9909 157.674 30.7385 157.567 30.4995C157.984 31.0041 158.32 31.4955 158.603 31.947C158.993 32.5978 159.007 32.7439 159.949 34.6164V34.6031Z" fill="#595757"/>
<path d="M188.752 30.5526H190.637C190.919 30.5526 191.189 30.4463 191.391 30.2737L191.821 29.8885H185.657V39.7692H191.821L191.391 39.3841C191.189 39.2114 190.919 39.1052 190.637 39.1052H187.191V34.9086H190.785V34.3906H187.191V30.5393H188.752V30.5526Z" fill="#595757"/>
<path d="M218.499 34.3641C218.499 34.3641 216.762 33.6602 216.197 32.9962C216.063 32.8501 215.968 32.6775 215.968 32.6775C215.941 32.6243 215.914 32.5712 215.888 32.5048C215.632 31.9072 215.753 31.0838 216.318 30.526C216.412 30.4331 216.843 30.0214 217.516 29.9151C218.499 29.7557 219.589 30.3135 220.208 31.3228C219.925 30.4862 219.333 29.862 218.741 29.6097C218.27 29.3972 217.624 29.3441 217.53 29.3441C217.395 29.3441 217.247 29.3441 217.247 29.3441C217.234 29.3441 217.22 29.3441 217.22 29.3441C216.372 29.4105 215.686 29.7292 215.215 30.2604C214.192 31.4291 214.595 33.1024 214.622 33.1821C215.026 34.643 216.412 35.4 216.762 35.5859C218.014 36.2765 218.903 36.0241 219.374 36.821C219.764 37.4584 219.522 38.1889 219.495 38.242C219.104 39.2513 217.826 39.5169 217.651 39.5567C216.534 39.7692 215.309 39.2779 214.515 38.3349C214.582 38.4412 215.659 40.088 217.651 40.1278C217.866 40.1278 218.808 40.1278 219.697 39.57C220.773 38.8794 221.419 37.4053 221.029 36.3163C220.639 35.2273 219.212 34.643 218.512 34.3641H218.499Z" fill="#595757"/>
<path d="M175.333 34.3641C175.333 34.3641 173.597 33.6602 173.032 32.9962C172.897 32.8501 172.803 32.6775 172.803 32.6775C172.776 32.6243 172.749 32.5712 172.722 32.5048C172.466 31.9072 172.587 31.0838 173.153 30.526C173.247 30.4331 173.678 30.0214 174.351 29.9151C175.333 29.7557 176.423 30.3135 177.043 31.3228C176.76 30.4862 176.168 29.862 175.575 29.6097C175.104 29.3972 174.458 29.3441 174.364 29.3441C174.229 29.3441 174.081 29.3441 174.081 29.3441C174.068 29.3441 174.055 29.3441 174.055 29.3441C173.207 29.4105 172.52 29.7292 172.049 30.2604C171.026 31.4291 171.43 33.1024 171.457 33.1821C171.861 34.643 173.247 35.4 173.597 35.5859C174.849 36.2765 175.737 36.0241 176.208 36.821C176.598 37.4584 176.356 38.1889 176.329 38.242C175.939 39.2513 174.66 39.5169 174.485 39.5567C173.368 39.7692 172.143 39.2779 171.349 38.3349C171.416 38.4412 172.493 40.088 174.485 40.1278C174.701 40.1278 175.643 40.1278 176.531 39.57C177.608 38.8794 178.254 37.4053 177.864 36.3163C177.473 35.2273 176.047 34.643 175.347 34.3641H175.333Z" fill="#595757"/>
<path d="M234.569 39.3974C234.367 39.2247 234.098 39.1185 233.816 39.1185H230.37V34.9218H233.964V34.4039H230.37V30.5526H233.816C234.098 30.5526 234.367 30.4463 234.569 30.2737L235 29.8885H228.835V39.7692H235L234.569 39.3841V39.3974Z" fill="#595757"/>
<path d="M207.515 34.6696V29.0785L206.627 29.8753C206.21 30.2339 205.981 30.7386 205.981 31.2432V38.0959C205.981 38.2686 206.021 38.4279 206.062 38.6006C205.429 37.8038 205.093 37.246 204.904 36.8343C204.85 36.7015 204.527 35.9843 204.016 35.0149C203.908 34.8157 203.814 34.643 203.666 34.3508C203.006 33.1158 202.455 32.1197 202.037 31.5088C201.593 30.8581 200.799 29.9417 199.359 29.0785V34.6696V40.2607L200.247 39.4638C200.664 39.1052 200.893 38.6006 200.893 38.0959V31.2432C200.893 30.9909 200.839 30.7386 200.732 30.4995C201.149 31.0042 201.486 31.4955 201.768 31.9471C202.159 32.5978 202.172 32.7439 203.114 34.6164C204.002 36.3828 204.447 37.2725 204.904 37.8702C205.389 38.5209 206.196 39.4107 207.515 40.2607V34.6696Z" fill="#595757"/>
</g>
<defs>
<clipPath id="clip0_197_143">
<rect width="195" height="105" fill="white" transform="translate(39 148)"/>
</clipPath>
<clipPath id="clip1_197_143">
<rect width="196" height="67" fill="white" transform="translate(39 22)"/>
</clipPath>
</defs>
</svg>
