<svg width="60" height="40" viewBox="0 0 60 40" fill="none" xmlns="http://www.w3.org/2000/svg">
<path d="M0.178977 15V12.7841L5.35653 7.99006C5.79688 7.56392 6.16619 7.1804 6.46449 6.83949C6.76752 6.49858 6.99716 6.16477 7.15341 5.83807C7.30966 5.50663 7.38778 5.14915 7.38778 4.76562C7.38778 4.33949 7.29072 3.97254 7.09659 3.66477C6.90246 3.35227 6.63731 3.11316 6.30114 2.94744C5.96496 2.77699 5.58381 2.69176 5.15767 2.69176C4.71259 2.69176 4.32434 2.78172 3.9929 2.96165C3.66146 3.14157 3.40578 3.39962 3.22585 3.7358C3.04593 4.07197 2.95597 4.47206 2.95597 4.93608H0.0369319C0.0369319 3.98437 0.252367 3.15814 0.683239 2.45739C1.11411 1.75663 1.7178 1.21449 2.49432 0.830965C3.27083 0.447443 4.16572 0.255681 5.17898 0.255681C6.22064 0.255681 7.12737 0.44034 7.89915 0.809659C8.67566 1.17424 9.27936 1.68087 9.71023 2.32955C10.1411 2.97822 10.3565 3.72159 10.3565 4.55966C10.3565 5.1089 10.2476 5.65104 10.0298 6.18608C9.81676 6.72112 9.43561 7.31534 8.88636 7.96875C8.33712 8.61742 7.56297 9.39631 6.56392 10.3054L4.44034 12.3864V12.4858H10.5483V15H0.178977ZM18.4798 15.3196C17.2582 15.3149 16.207 15.0142 15.3263 14.4176C14.4504 13.821 13.7757 12.9569 13.3022 11.8253C12.8335 10.6937 12.6014 9.33239 12.6062 7.74148C12.6062 6.1553 12.8406 4.8035 13.3093 3.68608C13.7828 2.56865 14.4575 1.71875 15.3335 1.13636C16.2141 0.549242 17.2629 0.255681 18.4798 0.255681C19.6966 0.255681 20.743 0.549242 21.619 1.13636C22.4996 1.72348 23.1767 2.57576 23.6502 3.69318C24.1237 4.80587 24.3581 6.1553 24.3533 7.74148C24.3533 9.33712 24.1166 10.7008 23.6431 11.8324C23.1744 12.964 22.502 13.8281 21.6261 14.4247C20.7501 15.0213 19.7013 15.3196 18.4798 15.3196ZM18.4798 12.7699C19.3131 12.7699 19.9783 12.3509 20.4755 11.5128C20.9727 10.6747 21.2189 9.41761 21.2141 7.74148C21.2141 6.63826 21.1005 5.7197 20.8732 4.9858C20.6507 4.25189 20.3335 3.70028 19.9215 3.33097C19.5143 2.96165 19.0337 2.77699 18.4798 2.77699C17.6512 2.77699 16.9883 3.19129 16.4911 4.01989C15.994 4.84848 15.743 6.08901 15.7383 7.74148C15.7383 8.8589 15.8496 9.79167 16.0721 10.5398C16.2994 11.2831 16.619 11.8419 17.0309 12.2159C17.4428 12.5852 17.9258 12.7699 18.4798 12.7699ZM26.5462 15V12.7841L31.7237 7.99006C32.1641 7.56392 32.5334 7.1804 32.8317 6.83949C33.1347 6.49858 33.3643 6.16477 33.5206 5.83807C33.6768 5.50663 33.755 5.14915 33.755 4.76562C33.755 4.33949 33.6579 3.97254 33.4638 3.66477C33.2696 3.35227 33.0045 3.11316 32.6683 2.94744C32.3321 2.77699 31.951 2.69176 31.5249 2.69176C31.0798 2.69176 30.6915 2.78172 30.3601 2.96165C30.0286 3.14157 29.773 3.39962 29.593 3.7358C29.4131 4.07197 29.3232 4.47206 29.3232 4.93608H26.4041C26.4041 3.98437 26.6196 3.15814 27.0504 2.45739C27.4813 1.75663 28.085 1.21449 28.8615 0.830965C29.638 0.447443 30.5329 0.255681 31.5462 0.255681C32.5878 0.255681 33.4946 0.44034 34.2663 0.809659C35.0429 1.17424 35.6465 1.68087 36.0774 2.32955C36.5083 2.97822 36.7237 3.72159 36.7237 4.55966C36.7237 5.1089 36.6148 5.65104 36.397 6.18608C36.1839 6.72112 35.8028 7.31534 35.2536 7.96875C34.7043 8.61742 33.9302 9.39631 32.9311 10.3054L30.8075 12.3864V12.4858H36.9155V15H26.5462ZM44.8469 15.3196C43.6254 15.3149 42.5742 15.0142 41.6935 14.4176C40.8176 13.821 40.1429 12.9569 39.6694 11.8253C39.2006 10.6937 38.9686 9.33239 38.9734 7.74148C38.9734 6.1553 39.2077 4.8035 39.6765 3.68608C40.15 2.56865 40.8247 1.71875 41.7006 1.13636C42.5813 0.549242 43.6301 0.255681 44.8469 0.255681C46.0638 0.255681 47.1102 0.549242 47.9862 1.13636C48.8668 1.72348 49.5439 2.57576 50.0174 3.69318C50.4909 4.80587 50.7253 6.1553 50.7205 7.74148C50.7205 9.33712 50.4838 10.7008 50.0103 11.8324C49.5415 12.964 48.8692 13.8281 47.9933 14.4247C47.1173 15.0213 46.0685 15.3196 44.8469 15.3196ZM44.8469 12.7699C45.6803 12.7699 46.3455 12.3509 46.8427 11.5128C47.3398 10.6747 47.5861 9.41761 47.5813 7.74148C47.5813 6.63826 47.4677 5.7197 47.2404 4.9858C47.0179 4.25189 46.7006 3.70028 46.2887 3.33097C45.8815 2.96165 45.4009 2.77699 44.8469 2.77699C44.0183 2.77699 43.3555 3.19129 42.8583 4.01989C42.3612 4.84848 42.1102 6.08901 42.1055 7.74148C42.1055 8.8589 42.2167 9.79167 42.4393 10.5398C42.6665 11.2831 42.9862 11.8419 43.3981 12.2159C43.81 12.5852 44.293 12.7699 44.8469 12.7699ZM59.7386 6.52699V8.92756H53.1051V6.52699H59.7386ZM0.178977 39V36.7841L5.35653 31.9901C5.79688 31.5639 6.16619 31.1804 6.46449 30.8395C6.76752 30.4986 6.99716 30.1648 7.15341 29.8381C7.30966 29.5066 7.38778 29.1491 7.38778 28.7656C7.38778 28.3395 7.29072 27.9725 7.09659 27.6648C6.90246 27.3523 6.63731 27.1132 6.30114 26.9474C5.96496 26.777 5.58381 26.6918 5.15767 26.6918C4.71259 26.6918 4.32434 26.7817 3.9929 26.9616C3.66146 27.1416 3.40578 27.3996 3.22585 27.7358C3.04593 28.072 2.95597 28.4721 2.95597 28.9361H0.0369319C0.0369319 27.9844 0.252367 27.1581 0.683239 26.4574C1.11411 25.7566 1.7178 25.2145 2.49432 24.831C3.27083 24.4474 4.16572 24.2557 5.17898 24.2557C6.22064 24.2557 7.12737 24.4403 7.89915 24.8097C8.67566 25.1742 9.27936 25.6809 9.71023 26.3295C10.1411 26.9782 10.3565 27.7216 10.3565 28.5597C10.3565 29.1089 10.2476 29.651 10.0298 30.1861C9.81676 30.7211 9.43561 31.3153 8.88636 31.9688C8.33712 32.6174 7.56297 33.3963 6.56392 34.3054L4.44034 36.3864V36.4858H10.5483V39H0.178977ZM18.4798 39.3196C17.2582 39.3149 16.207 39.0142 15.3263 38.4176C14.4504 37.821 13.7757 36.9569 13.3022 35.8253C12.8335 34.6937 12.6014 33.3324 12.6062 31.7415C12.6062 30.1553 12.8406 28.8035 13.3093 27.6861C13.7828 26.5687 14.4575 25.7187 15.3335 25.1364C16.2141 24.5492 17.2629 24.2557 18.4798 24.2557C19.6966 24.2557 20.743 24.5492 21.619 25.1364C22.4996 25.7235 23.1767 26.5758 23.6502 27.6932C24.1237 28.8059 24.3581 30.1553 24.3533 31.7415C24.3533 33.3371 24.1166 34.7008 23.6431 35.8324C23.1744 36.964 22.502 37.8281 21.6261 38.4247C20.7501 39.0213 19.7013 39.3196 18.4798 39.3196ZM18.4798 36.7699C19.3131 36.7699 19.9783 36.3509 20.4755 35.5128C20.9727 34.6747 21.2189 33.4176 21.2141 31.7415C21.2141 30.6383 21.1005 29.7197 20.8732 28.9858C20.6507 28.2519 20.3335 27.7003 19.9215 27.331C19.5143 26.9616 19.0337 26.777 18.4798 26.777C17.6512 26.777 16.9883 27.1913 16.4911 28.0199C15.994 28.8485 15.743 30.089 15.7383 31.7415C15.7383 32.8589 15.8496 33.7917 16.0721 34.5398C16.2994 35.2831 16.619 35.8419 17.0309 36.2159C17.4428 36.5852 17.9258 36.7699 18.4798 36.7699ZM26.5462 39V36.7841L31.7237 31.9901C32.1641 31.5639 32.5334 31.1804 32.8317 30.8395C33.1347 30.4986 33.3643 30.1648 33.5206 29.8381C33.6768 29.5066 33.755 29.1491 33.755 28.7656C33.755 28.3395 33.6579 27.9725 33.4638 27.6648C33.2696 27.3523 33.0045 27.1132 32.6683 26.9474C32.3321 26.777 31.951 26.6918 31.5249 26.6918C31.0798 26.6918 30.6915 26.7817 30.3601 26.9616C30.0286 27.1416 29.773 27.3996 29.593 27.7358C29.4131 28.072 29.3232 28.4721 29.3232 28.9361H26.4041C26.4041 27.9844 26.6196 27.1581 27.0504 26.4574C27.4813 25.7566 28.085 25.2145 28.8615 24.831C29.638 24.4474 30.5329 24.2557 31.5462 24.2557C32.5878 24.2557 33.4946 24.4403 34.2663 24.8097C35.0429 25.1742 35.6465 25.6809 36.0774 26.3295C36.5083 26.9782 36.7237 27.7216 36.7237 28.5597C36.7237 29.1089 36.6148 29.651 36.397 30.1861C36.1839 30.7211 35.8028 31.3153 35.2536 31.9688C34.7043 32.6174 33.9302 33.3963 32.9311 34.3054L30.8075 36.3864V36.4858H36.9155V39H26.5462ZM44.5202 39.1989C43.4596 39.1989 42.515 39.0166 41.6864 38.652C40.8626 38.2827 40.2115 37.776 39.7333 37.1321C39.2598 36.4834 39.016 35.7353 39.0018 34.8878H42.0984C42.1173 35.2429 42.2333 35.5554 42.4464 35.8253C42.6642 36.0904 42.953 36.2964 43.3129 36.4432C43.6727 36.59 44.0775 36.6634 44.5273 36.6634C44.9961 36.6634 45.4104 36.5805 45.7702 36.4148C46.1301 36.2491 46.4118 36.0194 46.6154 35.7259C46.819 35.4323 46.9208 35.0937 46.9208 34.7102C46.9208 34.322 46.8119 33.9787 46.5941 33.6804C46.381 33.3774 46.0733 33.1406 45.6708 32.9702C45.2731 32.7997 44.7996 32.7145 44.2504 32.7145H42.8938V30.456H44.2504C44.7144 30.456 45.1239 30.3755 45.479 30.2145C45.8389 30.0535 46.1183 29.831 46.3171 29.5469C46.516 29.258 46.6154 28.9219 46.6154 28.5384C46.6154 28.1738 46.5278 27.8542 46.3526 27.5795C46.1822 27.3002 45.9407 27.0824 45.6282 26.9261C45.3204 26.7699 44.9606 26.6918 44.5487 26.6918C44.132 26.6918 43.7508 26.7675 43.4052 26.919C43.0595 27.0658 42.7826 27.2765 42.5742 27.5511C42.3659 27.8258 42.2546 28.1477 42.2404 28.517H39.293C39.3072 27.679 39.5463 26.9403 40.0103 26.3011C40.4743 25.6619 41.0993 25.1624 41.8853 24.8026C42.676 24.438 43.5685 24.2557 44.5629 24.2557C45.5666 24.2557 46.445 24.438 47.1978 24.8026C47.9506 25.1671 48.5354 25.6596 48.9521 26.2798C49.3735 26.8954 49.5818 27.5866 49.5771 28.3537C49.5818 29.1681 49.3285 29.8475 48.8171 30.392C48.3105 30.9366 47.65 31.2822 46.8356 31.429V31.5426C47.9057 31.6799 48.7201 32.0516 49.2788 32.6577C49.8422 33.259 50.1216 34.0118 50.1168 34.9162C50.1216 35.7448 49.8825 36.4811 49.3995 37.125C48.9213 37.7689 48.2608 38.2756 47.418 38.6449C46.5752 39.0142 45.6093 39.1989 44.5202 39.1989Z" fill="black"/>
</svg>
