<?xml version="1.0" encoding="UTF-8"?>
<svg id="_圖層_1" data-name="圖層 1" xmlns="http://www.w3.org/2000/svg" viewBox="0 0 46 45">
  <defs>
    <style>
      .cls-1 {
        fill: #444;
      }
    </style>
  </defs>
  <path class="cls-1" d="M0,0v45h46V0H0ZM42.55,41.46H3.52V3.54h39.04v37.92Z"/>
  <path class="cls-1" d="M14.9,12.6l-6.59,18.52h3.28l1.55-4.39h6.74l1.55,4.39h3.28l-6.59-18.52h-3.21ZM14.17,23.77l2.33-6.62,2.33,6.62h-4.65ZM36.73,20.55c-.42-.86-1.05-1.56-1.91-2.09-.85-.52-1.91-.78-3.18-.78-1.38,0-2.55.31-3.52.94-.96.62-1.69,1.44-2.19,2.47-.5,1.02-.74,2.13-.74,3.34s.26,2.41.79,3.46,1.32,1.91,2.39,2.54,2.4.96,3.99.96c.95,0,1.79-.11,2.54-.3.74-.2,1.38-.43,1.88-.71l-.16-2.78c-.55.32-1.16.59-1.82.79s-1.38.3-2.15.3c-.66,0-1.26-.12-1.83-.36s-1.05-.61-1.44-1.11c-.4-.5-.65-1.17-.78-1.99h8.55c.07-.31.12-.62.16-.92s.05-.59.05-.88c.01-1.05-.2-2.03-.62-2.89ZM28.69,23.01c.16-.76.48-1.38.97-1.88.48-.49,1.15-.74,2-.74.59,0,1.07.13,1.41.41s.6.61.74,1.01c.14.41.23.8.23,1.2h-5.36Z"/>
</svg>