<svg width="46" height="45" viewBox="0 0 46 45" fill="none" xmlns="http://www.w3.org/2000/svg">
<path d="M0 0V45H46V0H0ZM42.5511 41.4576H3.51563V3.54241H42.5511V41.4576Z" fill="#444444"/>
<path d="M29 17H33V32H29V17Z" fill="#444444"/>
<path d="M16.1233 26.9014H21.4886L22.9387 32H27L21.1021 12H16.172V13.9741L11 32H14.6732L16.1233 26.9014ZM18.7816 15.5588L20.7643 23.4039H16.8005L18.7816 15.5588Z" fill="#444444"/>
<path d="M31 16C32.0997 16 33 15.1014 33 14C33 12.8986 32.0997 12 31 12C29.9003 12 29 12.8986 29 14C29 15.1093 29.8908 16 31 16Z" fill="#444444"/>
</svg>
