<svg width="46" height="46" viewBox="0 0 46 46" fill="none" xmlns="http://www.w3.org/2000/svg">
<g clip-path="url(#clip0_256_243)">
<g clip-path="url(#clip1_256_243)">
<path d="M8.20312 9.73216C8.20312 5.18566 11.8888 1.5 16.4353 1.5H30.5607C35.1072 1.5 38.7929 5.18566 38.7929 9.73216C38.7929 12.611 37.3151 15.1448 35.0767 16.6161C37.3151 18.0876 38.7929 20.6213 38.7929 23.5002C38.7929 28.0467 35.1072 31.7324 30.5607 31.7324H30.382C28.2505 31.7324 26.3083 30.9223 24.8463 29.5933V37.1784C24.8463 41.7855 21.0643 45.5 16.4797 45.5C11.9445 45.5 8.20312 41.8256 8.20312 37.2678C8.20312 34.3891 9.68078 31.8554 11.919 30.384C9.68078 28.9126 8.20312 26.3789 8.20312 23.5002C8.20312 20.6213 9.68091 18.0876 11.9193 16.6161C9.68091 15.1448 8.20312 12.611 8.20312 9.73216ZM22.1497 17.9645H16.4353C13.378 17.9645 10.8997 20.4429 10.8997 23.5002C10.8997 26.5456 13.3589 29.0167 16.3999 29.0357C16.4117 29.0357 16.4235 29.0357 16.4353 29.0357H22.1497V17.9645ZM24.8463 23.5002C24.8463 26.5574 27.3246 29.0358 30.382 29.0358H30.5607C33.618 29.0358 36.0964 26.5574 36.0964 23.5002C36.0964 20.4429 33.618 17.9645 30.5607 17.9645H30.382C27.3246 17.9645 24.8463 20.4429 24.8463 23.5002ZM16.4353 31.7324C16.4235 31.7324 16.4117 31.7323 16.3999 31.7323C13.3589 31.7513 10.8997 34.2223 10.8997 37.2678C10.8997 40.3138 13.4112 42.8035 16.4797 42.8035C19.5977 42.8035 22.1497 40.2738 22.1497 37.1784V31.7324H16.4353ZM16.4353 4.19653C13.378 4.19653 10.8997 6.67492 10.8997 9.73216C10.8997 12.7894 13.378 15.2678 16.4353 15.2678H22.1497V4.19653H16.4353ZM24.8463 15.2678H30.5607C33.618 15.2678 36.0964 12.7894 36.0964 9.73216C36.0964 6.67492 33.618 4.19653 30.5607 4.19653H24.8463V15.2678Z" fill="#444444"/>
</g>
</g>
<defs>
<clipPath id="clip0_256_243">
<rect width="46" height="46" fill="white"/>
</clipPath>
<clipPath id="clip1_256_243">
<rect width="33" height="44" fill="white" transform="translate(7 1.5)"/>
</clipPath>
</defs>
</svg>
