<?xml version="1.0" encoding="UTF-8"?>
<svg id="_圖層_1" data-name="圖層 1" xmlns="http://www.w3.org/2000/svg" viewBox="0 0 46 45">
  <defs>
    <style>
      .cls-1 {
        fill: #444;
      }
    </style>
  </defs>
  <path class="cls-1" d="M0,0v45h46V0H0ZM42.55,41.46H3.52V3.54h39.04v37.92Z"/>
  <path id="Pr" class="cls-1" d="M15.43,25.87v6.05h-4.3V14.09h7.12c1.36,0,2.57.25,3.62.75s1.86,1.22,2.44,2.14.86,1.98.86,3.15c0,1.74-.63,3.13-1.87,4.17s-2.96,1.56-5.12,1.56h-2.74ZM15.43,22.55h2.81c.84,0,1.47-.21,1.9-.63.44-.41.66-1,.66-1.77,0-.83-.23-1.49-.67-1.99s-1.06-.75-1.84-.76h-2.86v5.14ZM35.27,22.4l-1.36-.09c-1.3,0-2.13.41-2.49,1.23v8.38h-4.13v-13.25h3.87l.13,1.7c.7-1.3,1.66-1.95,2.9-1.95.44,0,.82.05,1.15.15l-.07,3.82Z"/>
</svg>