<svg width="47" height="45" viewBox="0 0 47 45" fill="none" xmlns="http://www.w3.org/2000/svg">
<path d="M0 0V45H47V0H0ZM43.2612 41.4211H3.73712V3.57892H43.2612V41.4211Z" fill="#444444"/>
<path d="M22.2149 14.516C21.0994 13.5489 19.4366 13 17.1074 13C14.8008 13 12 13.0743 12 13.0743V31H15.7441V25.2395C15.7441 25.2395 16.3992 25.2314 17.1074 25.2024C19.6716 25.0942 21.1734 24.316 22.4628 23.0002C23.4543 21.9814 24 20.53 24 18.7589C24 16.9878 23.2805 15.4298 22.2149 14.516ZM17.0076 22.0605C16.404 22.067 16.1497 22.0864 15.7425 22.0476V15.8577C15.7425 15.8577 16.536 15.8302 17.3054 15.8577C19.2338 15.9287 20.2559 17.2946 20.2559 18.9591C20.2559 20.8125 19.0165 22.0363 17.0076 22.0605Z" fill="#444444"/>
<path d="M31.2867 22.5039C29.6109 21.9284 29.079 21.6003 29.079 20.9699C29.079 20.2862 29.666 19.8756 30.6997 19.8756C31.8719 19.8756 33.6461 20.6094 34.2613 20.9392V17.9149C33.4243 17.5043 32.1521 17 30.5597 17C27.1798 17 25.0005 18.8896 25.0005 21.4096C24.9722 22.9694 26.061 24.0847 28.8839 25.0158C30.4763 25.5362 30.8948 26.2556 30.8948 26.9409C30.8948 27.6263 30.3646 28.0643 29.079 28.0643C27.8218 28.0643 25.9776 27.3676 25.1956 26.9037V29.8892C26.2294 30.4356 27.7268 30.9544 29.079 30.9949C33.0191 31.1145 35 29.1328 35 26.6403C34.9717 24.6682 33.8828 23.3816 31.285 22.5055L31.2867 22.5039Z" fill="#444444"/>
</svg>
