<svg width="46" height="45" viewBox="0 0 46 45" fill="none" xmlns="http://www.w3.org/2000/svg">
<path d="M37 13V30.6454H34.0018V29.8111C33.0283 30.6037 32.0289 31 31.0035 31C30.0301 31 29.167 30.7706 28.4142 30.3117C27.6614 29.8389 27.0708 29.1367 26.6425 28.2051C26.2142 27.2735 26 26.1333 26 24.7845C26 23.4357 26.2142 22.2955 26.6425 21.3638C27.0708 20.4322 27.6614 19.737 28.4142 19.2781C29.167 18.8053 30.0301 18.5689 31.0035 18.5689C32.0419 18.5689 33.0413 18.9722 34.0018 19.7787V13H37ZM31.6071 28.1425C32.3858 28.1425 33.1841 27.8227 34.0018 27.1831V22.3859C33.1971 21.7601 32.3988 21.4473 31.6071 21.4473C30.7894 21.4473 30.1729 21.7323 29.7575 22.3024C29.3422 22.8725 29.1345 23.6999 29.1345 24.7845C29.1345 25.883 29.3422 26.7173 29.7575 27.2874C30.1729 27.8575 30.7894 28.1425 31.6071 28.1425Z" fill="#444444"/>
<path d="M21.2979 31L17.5 25.3034L13.7021 31H9L15.1715 22.2309L9.40691 14H14.0864L17.5226 19.1359L20.9362 14H25.6157L19.8511 22.2309L26 31H21.2979Z" fill="#444444"/>
<path d="M0 0V45H46V0H0ZM42.3407 41.4211H3.65761V3.57892H42.3407V41.4211Z" fill="#444444"/>
</svg>
