<svg width="1512" height="445" viewBox="0 0 1512 445" fill="none" xmlns="http://www.w3.org/2000/svg">
<g clip-path="url(#clip0_378_500)">
<mask id="mask0_378_500" style="mask-type:alpha" maskUnits="userSpaceOnUse" x="297" y="106" width="273" height="265">
<ellipse cx="433.254" cy="238.687" rx="136.225" ry="131.946" fill="#D9D9D9"/>
</mask>
<g mask="url(#mask0_378_500)">
<circle cx="433.5" cy="242.5" r="261.5" fill="url(#paint0_radial_378_500)"/>
<circle cx="433.265" cy="242.222" r="39.6253" fill="#F0662B" fill-opacity="0.9"/>
</g>
<path d="M647.311 271.982C648.902 315.062 651.17 341.602 674.34 365.511C677.624 368.9 675.352 375.042 670.633 375.042H341.925C370.857 366.997 394.015 326.093 402.609 271.741C403.106 268.601 409.116 267.563 411.934 269.034C421.135 273.836 434.972 263.702 447.208 235.565C448.531 232.523 452.344 231.446 455.087 233.311C473.828 246.048 503.743 255.401 531.651 160.242C532.481 157.411 535.605 155.873 538.552 156.015C548.224 156.479 558.859 148.478 566.87 128.967C567.756 126.809 572.051 127.406 572.285 129.727C574.626 152.893 582.91 166.011 595.42 231.164C600.078 255.422 615.36 283.608 637.418 267.928C641.157 265.269 647.142 267.397 647.311 271.982Z" fill="#D7E8E5"/>
<path d="M651.15 261.448C656.179 308.317 660.414 375.042 704.663 375.042H340.341C368.403 375.042 397.611 347.87 408.466 302.838C409.524 298.452 416.089 297.016 420.41 298.317C434.603 302.592 450.56 280.265 456.29 259.967C457.154 256.904 460.47 255.124 463.515 256.047C493.148 265.026 511.073 242.949 531.528 160.825C532.289 157.772 535.637 156.145 538.544 157.346C552.855 163.256 560.757 161.68 568.71 125.334C568.906 124.441 573.571 125.571 574.294 126.13C577.694 128.756 590.422 141.269 590.729 145.554L590.784 146.324C592.85 175.119 595.331 209.713 611.672 248.722C618.61 265.285 629.893 267.869 639.437 258.686C643.075 255.186 650.611 256.428 651.15 261.448Z" fill="#B8CEC3"/>
<path d="M634.967 261.611C619.254 267.242 600.33 185.824 590.615 145.468C594.416 191.221 595.05 214.45 612.157 255.276C619.546 272.91 632.855 269.588 634.967 261.611Z" fill="#8CB09E"/>
<path d="M57.0131 221.033C47.7877 221.033 25.7289 290.865 5.13681 324.58H510.436C445.808 324.58 404.307 243.32 365.103 196.004C350.651 198.709 339.281 176.063 323.772 145.173L323.127 143.888C303.723 134.973 293.823 89.7144 282.339 52.6845C260.954 58.864 261.35 45.8329 234.422 26.2914C221.675 17.0411 121.562 230.977 104.929 245.377C88.2973 259.778 80.3773 221.033 57.0131 221.033Z" fill="#C2DAD6"/>
<path d="M57.4091 220.696C48.5387 222.891 5.1368 290.87 -15.4553 324.586H489.844C425.216 324.586 379.755 238.868 365.103 196.009C347.362 217.404 329.727 170.18 323.127 143.893C299.778 152.908 286.8 78.3277 282.392 52.9967L282.339 52.69C251.054 74.9765 249.866 26.2891 233.234 26.2891C216.602 26.2891 100.969 230.982 84.3373 245.383C67.7052 259.783 68.4972 217.953 57.4091 220.696Z" fill="#8CB09E"/>
<path d="M95.8334 248.125C77.7757 267.052 73.7772 254.64 74.0412 246.754C83.9413 255.669 95.8214 229.611 142.946 154.179C190.07 78.7481 216.697 39.5016 221.354 37.2612C205.118 58.5599 118.406 224.467 95.8334 248.125Z" fill="#437D60"/>
<path d="M1138.9 311.627C1109.22 321.947 1067.88 324.335 1051.32 324.368C1174.94 324.122 1317.6 304.621 1323.56 303.57C1345.43 299.714 1346.57 291.823 1338.28 276.391C1337.86 275.6 1336.93 275.268 1336.04 275.14C1333.35 274.754 1331.91 271.372 1331.31 268.62C1331.09 267.62 1330.22 266.886 1329.23 266.63C1323.64 265.185 1322.82 256.794 1323.24 251.115C1323.32 250.003 1322.54 248.995 1321.45 248.757C1311.39 246.553 1302.83 237.615 1298.48 231.576C1297.64 230.42 1295.8 230.299 1294.6 231.075C1288.07 235.309 1272.49 237.124 1265.09 234.111C1264.02 233.672 1262.68 233.951 1262.04 234.923C1259.13 239.352 1251.54 250.212 1236.68 269.993C1220.33 291.753 1204.97 286.687 1198.01 280.423C1197.17 279.663 1195.87 279.606 1195.02 280.361C1186.9 287.585 1166.65 301.982 1138.9 311.627Z" fill="#0C5646"/>
<path d="M1326.19 248.643C1318.37 247.583 1305.55 238.077 1298.69 231.782L1310.13 296.723C1310.28 297.542 1310.76 298.264 1311.45 298.717L1350.17 323.879C1350.66 324.195 1351.23 324.364 1351.81 324.364L1397.63 324.364C1375.48 321.411 1361.67 296.76 1357.57 282.656C1357.09 281.01 1355.37 280.092 1353.67 279.874C1348.01 279.147 1346.75 271.249 1345.91 267.226C1345.66 266.022 1344.56 265.357 1343.34 265.177C1336.73 264.197 1332 256.592 1329.72 251.103C1329.14 249.71 1327.68 248.846 1326.19 248.643Z" fill="#C7D8B4"/>
<path d="M1134.4 315.113C1103.5 323.753 1058.74 324.338 1042.18 324.371C1167.96 324.371 1313.39 324.473 1389.86 324.473C1377.95 324.497 1350.77 307.31 1344.22 289.595C1343.85 288.592 1342.75 287.913 1341.75 287.534C1337.04 285.748 1328.62 276.421 1326.19 272.077C1325.69 271.184 1324.72 270.463 1323.73 270.19C1318.21 268.662 1317.74 259.83 1318.23 254.066C1318.33 252.953 1317.54 251.946 1316.45 251.737C1307.2 249.975 1301.99 244.428 1299.71 236.652C1299.2 234.922 1296.35 233.93 1294.74 234.733C1287.13 238.514 1272.17 240.41 1265.12 237.712C1264.04 237.296 1262.76 237.608 1262.27 238.66C1260.07 243.364 1254.53 254.947 1236.7 273.55C1220.48 290.459 1206.96 288.318 1197.9 283.274C1197.1 282.83 1196.12 282.927 1195.44 283.538C1187.5 290.708 1165.87 306.312 1134.4 315.113Z" fill="#0C5646"/>
<path d="M1196.17 293.768C1191.15 294.76 1200.05 285.276 1197.36 280.258C1210.08 289.794 1217.43 285.064 1221.79 283.745C1220.11 285.714 1201.19 292.775 1196.17 293.768Z" fill="#172D22"/>
<path d="M1298.69 254.43C1302.28 251.354 1299.79 241.715 1298.69 231.781C1300.28 246.086 1309.23 250.1 1317.36 252.046C1315.69 254.015 1295.91 256.814 1298.69 254.43Z" fill="#172D22" fill-opacity="0.3"/>
<path d="M1322.53 290.589C1326.12 287.512 1324.51 281.052 1325.31 270.721C1331.67 280.655 1335.72 283.4 1343.59 288.205C1341.92 290.174 1319.75 292.973 1322.53 290.589Z" fill="#172D22" fill-opacity="0.5"/>
<path d="M1343.5 310.493C1347.09 307.417 1345.09 298.933 1343.98 289C1350.74 306.483 1376.96 324.364 1389.68 324.364C1374.98 325.953 1340.72 312.878 1343.5 310.493Z" fill="#172D22" fill-opacity="0.8"/>
<rect x="-42" y="324" width="1580" height="711" fill="#8CB09E"/>
<path opacity="0.9" fill-rule="evenodd" clip-rule="evenodd" d="M1283.55 293.653C1275.66 293.653 1269.26 300.051 1269.26 307.944C1269.26 311.615 1270.65 314.963 1272.92 317.494H1237.08C1228.52 317.494 1221.58 324.432 1221.58 332.991C1221.58 341.549 1228.52 348.487 1237.08 348.487H1367.27C1365.13 349.627 1363.68 351.875 1363.68 354.462C1363.68 358.2 1366.71 361.231 1370.45 361.231H1813.13C1816.87 361.231 1819.9 358.2 1819.9 354.462C1819.9 350.723 1816.87 347.693 1813.13 347.693H1761.24C1767.39 345.638 1771.82 339.832 1771.82 332.991C1771.82 324.432 1764.88 317.494 1756.33 317.494H1721.82C1724.1 314.963 1725.48 311.615 1725.48 307.944C1725.48 300.051 1719.08 293.653 1711.19 293.653H1283.55Z" fill="white"/>
<path opacity="0.4" fill-rule="evenodd" clip-rule="evenodd" d="M164.75 310.894C172.615 310.894 178.991 304.518 178.991 296.652C178.991 294.049 178.293 291.61 177.074 289.51L296.198 289.51C304.728 289.51 311.643 282.595 311.643 274.066C311.643 265.536 304.728 258.622 296.199 258.622L238.87 258.622C242.587 258.611 245.597 255.595 245.597 251.876C245.597 248.15 242.576 245.129 238.85 245.129L-46.6488 245.129C-50.3746 245.129 -53.395 248.15 -53.395 251.876C-53.395 255.601 -50.3746 258.622 -46.6488 258.622L-33.5543 258.622C-42.0705 258.637 -48.9694 265.546 -48.9694 274.066C-48.9694 277.14 -48.0714 280.004 -46.5234 282.41L-105.758 282.41C-113.624 282.41 -120 288.786 -120 296.652C-120 304.518 -113.624 310.894 -105.758 310.894L164.75 310.894Z" fill="white"/>
</g>
<defs>
<radialGradient id="paint0_radial_378_500" cx="0" cy="0" r="1" gradientUnits="userSpaceOnUse" gradientTransform="translate(433.5 242.5) rotate(90) scale(133.244)">
<stop stop-color="#FFA47C"/>
<stop offset="1" stop-color="#EFDBA6" stop-opacity="0"/>
</radialGradient>
<clipPath id="clip0_378_500">
<rect width="1512" height="445" fill="white"/>
</clipPath>
</defs>
</svg>
